<?xml version="1.0" standalone="no"?>
<!DOCTYPE svg PUBLIC "-//W3C//DTD SVG 20010904//EN"
 "http://www.w3.org/TR/2001/REC-SVG-20010904/DTD/svg10.dtd">
<svg version="1.0" xmlns="http://www.w3.org/2000/svg"
 width="1350.000000pt" height="650.000000pt" viewBox="0 0 1350.000000 650.000000"
 preserveAspectRatio="xMidYMid meet">

<g transform="translate(0.000000,650.000000) scale(0.100000,-0.100000)"
fill="#000000" stroke="none">
<path d="M643 6329 c-144 -18 -269 -113 -340 -256 l-38 -77 -3 -235 c-3 -190
-7 -238 -18 -244 -21 -12 -20 -235 1 -243 12 -5 15 -26 15 -98 0 -79 -3 -94
-20 -109 -19 -16 -20 -29 -20 -217 0 -187 1 -201 20 -220 27 -27 27 -93 0
-120 -19 -19 -20 -33 -20 -220 0 -187 1 -201 20 -220 20 -20 20 -33 20 -1763
0 -1907 -3 -1804 57 -1907 38 -64 103 -130 165 -167 109 -66 56 -63 1298 -63
1229 0 1183 -2 1292 57 77 42 146 117 187 202 l36 76 5 1836 c5 1731 6 1838
23 1856 15 18 17 50 17 363 0 285 -2 346 -14 359 -12 13 -16 108 -23 552 l-8
535 -37 75 c-67 136 -193 227 -343 249 -84 12 -2179 12 -2272 -1z m377 -226
c0 -57 24 -109 63 -137 28 -21 37 -21 700 -21 l672 0 31 22 c41 29 64 79 64
137 l0 46 188 0 c175 0 190 -2 238 -24 59 -27 116 -90 132 -145 9 -29 12 -720
12 -2745 l0 -2706 -21 -45 c-12 -25 -37 -59 -57 -76 -74 -65 -59 -64 -582 -67
-453 -3 -611 4 -566 23 28 12 59 45 44 46 -7 0 -1 5 15 11 15 5 27 14 27 19 0
5 7 9 16 9 8 0 12 5 8 11 -8 14 14 29 44 29 13 0 20 4 17 10 -3 6 1 10 10 10
9 0 13 5 10 10 -3 6 0 10 7 10 10 0 10 2 -1 9 -11 7 -9 10 9 16 25 8 66 45 49
45 -5 0 -7 5 -4 10 3 6 19 10 36 10 16 0 29 5 29 10 0 6 8 10 17 10 9 0 13 3
9 7 -6 7 90 73 106 73 4 0 8 -62 8 -138 0 -150 6 -168 46 -150 22 10 24 17 24
92 0 168 11 288 27 312 8 13 18 22 22 19 9 -5 63 30 56 37 -3 3 6 3 20 1 14
-3 25 -2 25 3 0 12 -52 64 -65 64 -6 0 -26 -15 -45 -33 -19 -17 -57 -49 -83
-69 -27 -20 -79 -65 -117 -100 -37 -35 -87 -81 -112 -103 -24 -22 -110 -102
-190 -177 l-147 -138 -558 0 c-307 0 -568 3 -580 6 -20 6 -15 13 55 79 42 40
118 107 167 149 l90 77 3 -125 c2 -114 4 -125 22 -131 41 -13 48 12 56 200 6
163 9 179 29 203 16 19 32 26 61 26 40 1 64 11 64 26 0 15 -61 80 -76 80 -7 0
-17 -6 -21 -13 -4 -8 -42 -41 -83 -74 -41 -33 -98 -82 -127 -109 -28 -27 -89
-83 -135 -124 -46 -41 -117 -108 -159 -148 l-76 -73 -33 37 c-18 21 -40 54
-49 73 -15 33 -16 266 -16 2751 l0 2715 29 53 c16 28 44 64 63 78 61 46 95 53
296 53 l187 1 0 -47z m945 -28 c0 -19 -8 -20 -194 -23 -114 -1 -199 2 -204 7
-5 5 -7 17 -4 26 6 13 31 15 204 13 190 -3 198 -4 198 -23z m420 -5565 c3 -5
1 -10 -4 -10 -6 0 -11 5 -11 10 0 6 2 10 4 10 3 0 8 -4 11 -10z m25 -38 c0
-10 -36 -9 -46 1 -4 4 5 7 19 7 15 0 27 -4 27 -8z m-1360 -33 c0 -11 -3 -11
-24 -3 -23 9 -20 23 4 17 11 -3 20 -9 20 -14z"/>
<path d="M2436 4461 c-3 -5 6 -41 19 -81 14 -41 23 -75 21 -77 -2 -3 -24 27
-47 66 -33 54 -49 71 -66 71 -13 0 -23 -6 -23 -12 0 -7 22 -80 49 -163 42
-127 52 -149 68 -147 10 2 20 6 22 8 2 2 -8 40 -22 85 -28 91 -27 91 34 -2 39
-58 47 -65 66 -58 22 8 21 9 -30 163 -40 120 -56 156 -69 156 -9 0 -19 -4 -22
-9z"/>
<path d="M2152 4373 c-29 -10 -42 -20 -38 -29 3 -7 26 -79 52 -159 25 -80 50
-145 53 -145 19 0 101 33 101 40 0 30 -14 40 -44 34 -30 -5 -33 -3 -44 33 -6
21 -8 39 -4 41 23 8 31 20 25 41 -4 17 -11 22 -29 18 -18 -3 -25 2 -34 26 -13
40 -13 57 3 57 25 0 39 17 32 39 -7 24 -15 25 -73 4z"/>
<path d="M1902 4293 c-33 -13 -33 -52 4 -166 20 -62 42 -122 50 -134 15 -24
51 -30 82 -14 9 5 25 12 34 15 15 5 15 12 -8 80 -26 76 -30 81 -71 70 -26 -7
-31 -32 -9 -40 8 -3 19 -19 25 -36 14 -40 14 -48 -2 -48 -12 0 -77 178 -77
213 0 28 20 19 31 -13 11 -30 24 -36 47 -22 15 10 1 55 -25 84 -15 17 -53 22
-81 11z"/>
<path d="M1529 4171 c-72 -23 -78 -27 -72 -52 4 -15 12 -19 31 -17 24 3 27 -3
65 -122 21 -69 42 -129 46 -133 12 -12 41 3 41 22 0 9 -18 71 -40 136 -22 65
-40 120 -40 122 0 2 7 3 15 3 19 0 29 24 18 43 -7 13 -15 13 -64 -2z"/>
<path d="M1323 4103 c-8 -3 -13 -24 -13 -51 l-1 -47 -30 37 c-21 26 -35 35
-50 31 -25 -7 -21 -18 31 -87 40 -53 42 -58 47 -150 6 -90 7 -94 26 -87 18 7
21 15 18 62 l-3 54 31 -42 c32 -44 38 -47 65 -37 12 5 4 22 -39 84 l-55 78 0
81 c0 44 -3 81 -7 80 -5 0 -14 -3 -20 -6z"/>
<path d="M1055 4014 c-22 -8 -45 -16 -52 -19 -10 -3 41 -177 91 -312 6 -15
106 16 106 33 0 33 -11 43 -37 33 -30 -11 -36 -7 -51 39 -10 30 -10 35 8 39
21 5 25 19 14 47 -4 11 -13 14 -29 10 -19 -5 -24 0 -34 27 -15 44 -15 46 18
57 23 8 28 15 24 31 -7 29 -12 30 -58 15z"/>
<path d="M832 3942 c-9 -6 -6 -25 13 -82 14 -40 23 -75 22 -77 -2 -2 -25 28
-51 67 -48 72 -52 76 -75 61 -11 -7 -4 -38 39 -165 35 -106 56 -156 66 -156
26 0 26 28 1 105 -14 41 -24 75 -23 75 2 0 25 -34 52 -75 27 -41 54 -75 59
-75 36 0 34 18 -17 173 -29 86 -57 157 -63 157 -5 0 -16 -4 -23 -8z"/>
<path d="M2477 3901 c-135 -47 -162 -62 -152 -89 3 -7 39 -118 81 -247 64
-201 79 -236 97 -240 13 -3 85 16 167 43 134 45 145 51 148 75 4 36 -14 67
-41 67 -13 0 -63 -13 -112 -30 -49 -16 -90 -30 -91 -30 -7 0 -41 120 -36 124
4 2 31 11 60 21 58 18 74 38 61 73 -13 33 -32 36 -98 14 l-58 -20 -18 59 c-10
33 -16 61 -14 63 2 1 49 18 104 37 93 32 100 36 103 62 4 32 -22 67 -47 66 -9
0 -78 -22 -154 -48z"/>
<path d="M2153 3790 c-34 -20 -41 -38 -64 -157 -6 -35 -14 -63 -16 -63 -3 0
-38 29 -79 65 -64 56 -80 65 -113 65 -43 0 -71 -24 -71 -61 0 -13 34 -126 76
-251 57 -172 80 -229 94 -233 27 -9 90 20 90 42 0 10 -20 80 -44 156 l-44 138
58 -55 c32 -31 68 -56 79 -56 28 0 47 33 62 110 l12 65 46 -135 c53 -155 55
-160 82 -160 31 0 79 29 79 47 0 34 -152 479 -168 491 -22 17 -42 15 -79 -8z"/>
<path d="M1532 3591 c-84 -29 -132 -85 -132 -156 0 -48 85 -306 112 -340 59
-75 207 -71 288 8 62 60 64 95 14 256 -51 164 -75 208 -127 232 -52 23 -87 23
-155 0z m95 -106 c15 -11 35 -54 63 -140 22 -68 40 -129 40 -135 0 -20 -49
-60 -74 -60 -38 0 -51 21 -96 156 -46 137 -45 164 2 184 33 13 41 12 65 -5z"/>
<path d="M1210 3487 c-35 -17 -35 -39 -1 -139 l29 -87 -61 -20 c-33 -12 -66
-21 -73 -21 -7 0 -27 43 -44 95 l-32 95 -36 0 c-43 -1 -72 -19 -72 -46 0 -10
35 -125 78 -254 l77 -235 36 -3 c23 -2 43 3 59 16 l23 19 -36 107 c-25 75 -32
108 -24 111 55 20 131 45 132 43 1 -2 17 -48 35 -103 18 -55 38 -103 44 -107
21 -14 55 -8 82 15 l26 23 -78 239 c-43 132 -82 246 -87 253 -12 15 -45 15
-77 -1z"/>
<path d="M2503 843 c9 -2 23 -2 30 0 6 3 -1 5 -18 5 -16 0 -22 -2 -12 -5z"/>
<path d="M2651 777 c-1 -60 -3 -69 -23 -76 -21 -7 -21 -8 -2 -13 18 -5 20 -15
22 -107 2 -73 -1 -108 -10 -119 -11 -13 -11 -14 1 -7 10 5 12 4 7 -3 -4 -7
-16 -12 -27 -12 -10 0 -19 -4 -19 -10 0 -5 -7 -10 -17 -10 -9 0 -14 -3 -10 -6
3 -4 14 -3 24 1 10 4 28 7 40 6 22 -2 22 -1 25 191 2 106 0 202 -4 213 -4 11
-7 -10 -7 -48z"/>
<path d="M1288 609 c-3 -193 -3 -194 -25 -197 -13 -2 -23 -7 -23 -12 0 -5 -8
-11 -17 -14 -10 -2 5 -2 32 1 28 3 51 6 52 7 1 1 3 89 3 195 1 124 -2 197 -9
204 -7 7 -11 -47 -13 -184z"/>
<path d="M1255 780 c-3 -6 1 -7 9 -4 18 7 21 14 7 14 -6 0 -13 -4 -16 -10z"/>
<path d="M2589 764 c-1 -10 -1 -23 0 -28 1 -4 2 -28 3 -53 0 -24 3 -41 6 -39
6 7 3 128 -3 135 -3 2 -6 -4 -6 -15z"/>
<path d="M1230 673 c0 -42 3 -73 7 -70 9 10 10 147 1 147 -5 0 -8 -34 -8 -77z"/>
<path d="M1265 630 c-3 -5 -1 -10 4 -10 6 0 11 5 11 10 0 6 -2 10 -4 10 -3 0
-8 -4 -11 -10z"/>
<path d="M2588 573 c-5 -48 4 -75 16 -54 4 6 3 11 -3 11 -6 0 -8 6 -5 14 3 8
12 12 19 10 7 -3 16 -1 20 5 3 7 -2 11 -14 11 -15 0 -21 6 -21 21 0 16 5 20
20 16 11 -3 20 -1 20 4 0 5 -11 9 -24 9 -21 0 -24 -5 -28 -47z"/>
<path d="M1235 578 c-8 -24 -10 -138 -2 -138 7 0 9 15 10 90 0 37 4 46 21 52
20 6 20 6 -2 7 -12 1 -25 -5 -27 -11z"/>
<path d="M2598 503 c-11 -3 -18 -14 -18 -26 1 -20 2 -20 11 -4 5 9 19 17 29
17 11 0 20 5 20 10 0 10 -12 11 -42 3z"/>
<path d="M1250 468 c0 -4 4 -8 9 -8 6 0 12 4 15 8 3 5 -1 9 -9 9 -8 0 -15 -4
-15 -9z"/>
<path d="M2437 413 c18 -2 50 -2 70 0 21 2 7 4 -32 4 -38 0 -55 -2 -38 -4z"/>
<path d="M1088 383 c23 -2 59 -2 80 0 20 2 1 4 -43 4 -44 0 -61 -2 -37 -4z"/>
<path d="M3956 6329 c-186 -28 -345 -185 -376 -370 -5 -35 -10 -148 -10 -250
0 -157 -2 -188 -15 -193 -12 -4 -15 -27 -15 -121 0 -94 3 -117 15 -121 12 -5
15 -26 15 -99 0 -70 -4 -96 -15 -105 -12 -10 -15 -48 -15 -227 0 -181 2 -215
15 -219 10 -4 15 -21 15 -54 0 -33 -5 -50 -15 -54 -13 -4 -15 -39 -15 -226 0
-187 2 -222 15 -226 13 -5 15 -207 15 -1728 0 -1120 4 -1744 10 -1786 29 -180
171 -331 348 -369 37 -8 380 -11 1170 -11 1215 0 1184 -1 1287 56 112 63 201
186 225 313 6 35 10 670 10 1851 0 1589 2 1799 15 1804 22 8 23 721 0 729 -12
5 -14 84 -17 534 -3 526 -3 528 -26 585 -51 126 -149 222 -277 271 l-60 22
-1120 1 c-616 1 -1146 -2 -1179 -7z m384 -235 c0 -65 19 -103 64 -130 30 -18
62 -19 696 -19 625 0 668 1 693 18 44 29 67 75 67 135 l0 52 188 0 c126 -1
199 -5 223 -14 56 -20 103 -61 135 -118 l29 -53 3 -1776 c2 -1635 1 -1777 -14
-1783 -9 -4 -22 -2 -28 2 -15 13 -108 13 -123 0 -7 -5 -18 -6 -24 -2 -8 4 -9
3 -5 -4 4 -7 2 -12 -3 -12 -6 0 -11 4 -11 10 0 11 -53 40 -73 40 -8 0 -20 -15
-27 -33 -7 -17 -25 -57 -40 -88 l-27 -56 46 -2 c25 -1 82 -4 126 -5 44 -1 90
-8 103 -15 18 -9 31 -10 54 -2 17 6 35 11 39 11 5 0 9 -69 9 -154 l0 -155 -30
-14 c-16 -9 -40 -14 -52 -12 -13 2 -45 6 -73 10 -85 13 -121 67 -71 106 13 10
26 30 28 44 4 21 -1 29 -40 50 -45 25 -96 32 -121 16 -11 -7 -12 -13 -4 -23
22 -28 22 -62 1 -99 -28 -50 -65 -64 -104 -38 -38 25 -53 24 -63 -4 -5 -13
-16 -29 -25 -36 -9 -7 -16 -22 -16 -32 0 -11 -4 -19 -10 -19 -5 0 -6 -7 -3
-17 4 -10 2 -14 -4 -10 -6 4 -31 -32 -58 -83 -26 -49 -63 -108 -82 -130 -20
-23 -33 -43 -31 -45 2 -3 22 1 44 7 21 6 84 12 139 12 92 1 104 -1 149 -27 27
-15 55 -27 62 -27 8 0 23 -9 35 -21 19 -19 20 -29 16 -108 l-5 -87 25 -2 c18
-1 24 2 20 13 -4 9 5 20 25 30 29 14 34 14 57 -2 14 -9 32 -25 39 -35 7 -10
18 -18 24 -18 6 0 20 -7 29 -16 17 -15 30 -19 82 -23 14 -1 17 -11 17 -70 l0
-68 -56 -6 c-31 -3 -68 -1 -82 5 -40 16 -437 17 -453 0 -15 -14 -72 -16 -97
-3 -17 10 -233 31 -308 31 -30 0 -46 -6 -63 -24 -22 -23 -22 -25 -4 -34 30
-16 94 -30 168 -37 89 -7 135 -15 158 -27 10 -5 28 -10 40 -12 53 -6 207 -61
260 -93 47 -28 61 -32 72 -23 9 8 13 21 9 35 -7 29 10 39 96 55 36 7 72 17 81
21 9 5 54 6 99 2 l81 -6 -3 -261 c-3 -245 -4 -263 -25 -301 -28 -52 -78 -100
-127 -120 -25 -11 -82 -18 -163 -21 l-124 -6 6 34 6 33 -112 34 c-86 27 -128
35 -183 34 -53 -1 -80 4 -111 19 -58 31 -153 57 -178 51 -93 -23 -142 -15
-150 26 -8 38 -40 59 -114 76 -32 7 -98 25 -147 40 -48 14 -91 23 -94 20 -15
-15 -9 -67 9 -78 25 -15 24 -34 -1 -49 -11 -7 -20 -18 -20 -24 0 -13 63 -65
105 -87 17 -8 37 -27 45 -42 13 -24 13 -28 -4 -41 -22 -15 -42 -7 -140 58 -67
45 -89 45 -96 3 -4 -23 0 -35 19 -53 42 -39 18 -47 -160 -50 -88 -2 -171 -1
-185 2 -22 6 -24 10 -18 49 10 76 13 82 59 105 25 12 45 18 45 14 0 -5 10 -14
23 -21 13 -7 29 -28 36 -47 15 -41 24 -42 50 -5 15 21 20 40 17 70 -4 50 -11
59 -35 44 -16 -10 -21 -7 -37 22 -16 30 -16 39 -5 82 8 26 14 63 14 81 0 18 4
27 7 21 13 -20 43 80 44 144 1 48 -2 62 -15 65 -9 1 -21 -9 -29 -25 -11 -22
-14 -24 -17 -10 -7 29 -23 19 -44 -29 -22 -48 -74 -130 -90 -139 -13 -9 18 68
59 142 18 34 30 67 27 73 -10 16 -42 -15 -50 -48 -8 -33 -89 -156 -93 -142 -5
15 47 122 73 150 22 24 49 99 40 109 -3 2 -6 2 -8 0 -2 -2 -17 -22 -34 -44
-17 -22 -33 -50 -37 -61 -8 -27 -66 -108 -72 -101 -3 2 3 18 13 35 55 92 71
121 86 161 26 64 7 74 -32 17 -38 -55 -46 -58 -26 -10 25 60 16 96 -15 59 -19
-23 -31 -18 -24 11 6 25 5 26 -20 20 -22 -5 -26 -3 -26 14 0 24 -13 26 -30 5
-7 -8 -19 -15 -26 -15 -12 0 -12 5 1 30 16 32 9 38 -25 20 -18 -10 -19 -8 -13
21 5 29 4 31 -16 24 -17 -5 -21 -2 -21 14 0 16 -6 21 -25 21 -16 0 -25 6 -25
15 0 8 -4 15 -9 15 -5 0 -17 8 -26 17 -19 19 -137 63 -324 123 -30 9 -57 23
-59 30 -4 10 2 11 19 6 13 -4 65 -18 116 -31 50 -12 110 -32 131 -43 22 -11
55 -25 75 -30 39 -11 49 -4 77 51 16 33 66 72 74 59 8 -13 -10 -67 -35 -109
l-22 -36 24 -18 c17 -13 35 -17 64 -14 77 10 115 17 116 24 0 3 3 26 5 51 3
24 9 64 13 88 5 23 7 67 4 97 -5 80 17 72 84 -30 43 -64 76 -100 134 -146 l37
-29 -4 103 -3 102 39 -42 40 -42 -6 39 c-8 49 1 50 37 8 l27 -33 -5 47 c-5 47
-1 54 30 49 4 0 7 7 7 17 0 10 5 23 11 29 7 7 3 25 -15 61 -14 28 -26 64 -26
79 -1 35 -24 67 -44 60 -10 -4 -22 6 -35 27 -25 39 -27 64 -6 72 8 4 15 11 15
18 -1 16 -70 66 -91 66 -22 0 -30 12 -20 29 13 20 1 51 -19 51 -10 0 -25 7
-34 15 -8 8 -21 15 -29 15 -14 0 -31 34 -28 54 1 5 -4 13 -11 17 -10 7 -10 12
-1 28 10 16 9 22 -3 32 -12 10 -15 24 -10 60 4 30 2 50 -4 54 -6 4 -9 13 -6
21 3 8 -1 14 -10 14 -8 0 -12 5 -9 10 3 6 2 10 -4 10 -12 0 -41 57 -41 82 0
10 -4 26 -8 36 -5 9 -20 40 -33 67 -13 28 -26 52 -30 55 -13 11 -30 51 -24 59
3 5 1 11 -4 13 -12 4 -16 58 -6 83 11 25 45 56 55 50 5 -3 10 1 13 7 3 9 9 7
19 -6 10 -12 32 -20 62 -23 48 -5 48 -5 35 18 -13 25 -21 73 -21 129 0 22 -2
26 -5 12 -7 -33 -23 -16 -23 25 0 27 3 34 15 29 10 -4 15 1 15 15 0 11 -4 18
-9 14 -11 -6 -7 30 15 138 10 52 24 83 58 130 44 62 106 128 106 113 0 -5 8
-2 18 5 13 11 12 8 -3 -11 -11 -14 -28 -31 -37 -38 -57 -42 -142 -324 -129
-429 2 -16 49 7 56 27 8 29 24 144 20 148 -2 2 -12 -3 -21 -12 -21 -21 -29
-14 -15 12 6 12 11 28 11 37 0 33 73 168 131 241 44 55 55 74 40 69 -12 -3
-21 -3 -21 2 0 8 -7 10 -64 14 -18 1 -30 13 -46 45 -21 41 -22 45 -6 68 40 63
-1 62 -80 -2 -89 -72 -149 -111 -217 -142 -34 -15 -71 -37 -81 -49 -10 -11
-43 -85 -73 -163 -29 -79 -71 -177 -92 -219 -53 -101 -61 -137 -62 -265 0 -60
-7 -138 -15 -174 -68 -291 -75 -308 -109 -280 -12 10 -15 39 -13 146 1 110 -2
140 -17 173 -14 31 -24 41 -42 41 l-23 0 0 1611 c0 1194 3 1622 12 1650 16 55
73 118 132 145 48 22 62 24 244 24 l192 0 0 -56z m942 -6 c13 -35 0 -38 -202
-38 -199 0 -219 3 -206 35 7 20 401 22 408 3z m-1464 -3963 c-6 -14 -15 -25
-19 -25 -5 0 -3 11 3 25 6 14 15 25 19 25 5 0 3 -11 -3 -25z m561 -44 c19 -27
20 -31 5 -45 -20 -21 -34 -20 -50 2 -17 21 -18 44 -2 60 18 18 24 15 47 -17z
m-59 -53 c0 -6 16 -28 35 -49 32 -35 47 -79 28 -79 -7 0 -75 -59 -133 -116
l-25 -24 -28 25 c-27 26 -35 45 -18 45 5 0 14 -7 21 -15 18 -22 30 -18 30 10
0 17 -8 29 -25 37 -14 6 -25 17 -25 25 0 7 -4 13 -10 13 -5 0 -10 4 -10 9 0 5
9 7 20 4 14 -4 20 0 20 11 0 10 5 14 10 11 6 -3 10 -2 10 4 0 5 -5 13 -10 16
-8 5 -8 11 -1 19 7 9 7 16 -1 24 -20 20 7 37 61 39 29 0 51 -3 51 -9z m-154
-337 c-3 -24 -11 -50 -17 -57 -6 -7 -8 -18 -4 -24 3 -5 -3 -23 -14 -39 -12
-16 -21 -35 -21 -43 -1 -9 -5 -7 -14 5 -8 10 -12 27 -9 38 3 10 -1 34 -8 52
-16 39 -13 63 12 95 10 14 16 28 13 33 -14 23 10 27 38 6 28 -20 29 -25 24
-66z m2259 -116 c8 -23 6 -30 -13 -45 -25 -21 -116 -50 -154 -50 -17 0 -33 13
-56 45 -34 49 -40 70 -19 78 6 3 62 3 122 2 109 -4 110 -4 120 -30z m-2095 -2
c0 -12 -33 -43 -47 -43 -16 0 -16 5 -1 30 12 19 48 29 48 13z m10 -613 c-6
-12 -14 -20 -17 -17 -2 3 1 14 8 26 17 26 24 19 9 -9z m56 -26 c-10 -14 -20
-23 -23 -20 -3 3 2 17 11 32 10 14 20 23 23 20 3 -3 -2 -17 -11 -32z m-53 -79
c-3 -9 -8 -14 -10 -11 -3 3 -2 9 2 15 9 16 15 13 8 -4z m238 -80 c-18 -39 -41
-67 -41 -50 0 17 54 118 58 107 2 -7 -5 -32 -17 -57z m532 -326 c-8 -8 -16 -8
-30 0 -16 9 -14 10 12 11 21 0 26 -3 18 -11z m352 -89 c3 -5 -3 -10 -15 -10
-12 0 -18 5 -15 10 3 6 10 10 15 10 5 0 12 -4 15 -10z"/>
<path d="M5496 5501 c-3 -4 5 -37 19 -72 l24 -64 -25 30 c-14 17 -32 42 -42
58 -16 27 -52 38 -52 15 0 -17 81 -231 91 -242 6 -6 13 -6 21 2 8 8 6 25 -10
67 -30 78 -28 79 19 12 26 -37 47 -57 58 -55 9 2 16 8 16 13 0 6 -20 63 -44
128 -40 106 -59 134 -75 108z"/>
<path d="M5278 5422 c-21 -8 -38 -20 -38 -26 0 -21 89 -241 97 -241 4 0 24 6
44 13 30 10 36 17 32 33 -5 16 -11 19 -33 14 -24 -5 -29 -2 -38 24 -9 25 -8
32 5 39 22 13 8 52 -15 45 -12 -3 -22 4 -30 22 -13 29 -9 45 14 45 14 0 20 36
7 43 -5 2 -25 -3 -45 -11z"/>
<path d="M5062 5338 c-19 -19 -14 -60 18 -146 34 -89 58 -117 89 -107 12 3 21
11 21 16 0 6 5 7 10 4 24 -15 29 8 11 53 -10 26 -21 55 -24 64 -5 15 -10 16
-32 6 -14 -6 -25 -16 -26 -22 0 -14 -38 74 -38 92 -1 22 19 12 25 -13 6 -25
19 -31 41 -17 10 6 8 16 -5 42 -13 27 -24 36 -47 38 -17 2 -36 -3 -43 -10z
m102 -170 c3 -13 6 -30 6 -38 0 -12 -2 -12 -14 0 -22 24 -30 60 -13 60 8 0 17
-10 21 -22z"/>
<path d="M4755 5223 c-50 -20 -47 -17 -39 -37 4 -11 14 -16 24 -13 15 4 26
-15 60 -104 38 -98 44 -108 61 -99 18 10 18 12 -2 63 -66 166 -66 167 -43 167
20 0 14 34 -6 37 -8 1 -33 -5 -55 -14z"/>
<path d="M4599 5163 c-1 -5 0 -24 0 -43 l2 -35 -22 28 c-19 25 -59 38 -59 18
0 -5 17 -30 39 -56 34 -41 39 -54 45 -118 7 -79 9 -82 31 -73 12 4 14 15 9 48
l-6 43 29 -34 c21 -24 35 -33 47 -28 15 6 11 15 -28 65 -35 44 -46 67 -46 94
0 56 -11 98 -26 98 -8 0 -14 -3 -15 -7z"/>
<path d="M6005 5116 c-105 -33 -148 -102 -110 -176 20 -38 59 -58 132 -66 71
-8 93 -19 93 -44 0 -28 -37 -45 -100 -45 -50 0 -55 -2 -58 -23 -11 -74 122
-82 202 -11 40 35 52 75 36 122 -17 53 -49 76 -121 88 -110 18 -109 18 -109
40 0 23 52 49 99 49 32 0 46 22 31 50 -9 16 -33 31 -48 29 -4 0 -25 -6 -47
-13z"/>
<path d="M4383 5079 l-41 -18 39 -103 c63 -164 52 -149 96 -134 26 9 38 19 38
32 0 15 -6 18 -28 16 -21 -2 -29 3 -37 23 -14 36 -13 45 5 45 17 0 18 2 9 24
-3 9 -14 16 -25 16 -21 0 -43 35 -35 56 3 8 12 14 21 14 16 0 20 18 7 36 -5 8
-19 6 -49 -7z"/>
<path d="M4210 5010 c0 -5 9 -33 20 -61 12 -28 19 -53 17 -55 -2 -2 -21 20
-43 50 -30 43 -42 52 -55 45 -15 -7 -12 -22 28 -126 25 -65 48 -121 51 -125 4
-4 13 -3 21 1 11 7 9 21 -12 75 -14 36 -24 66 -23 66 2 0 22 -27 45 -60 23
-33 45 -60 49 -60 29 1 26 22 -17 138 -35 93 -50 122 -63 122 -10 0 -18 -4
-18 -10z"/>
<path d="M5711 5007 c-18 -6 -49 -25 -67 -42 -29 -28 -34 -39 -34 -79 0 -39 5
-53 28 -76 28 -28 43 -32 144 -45 61 -8 79 -34 47 -66 -19 -19 -29 -21 -75
-15 -51 6 -55 5 -66 -19 -18 -39 12 -65 74 -65 130 0 206 102 148 198 -24 38
-73 62 -129 62 -117 0 -123 68 -7 80 44 4 51 8 54 28 7 49 -39 64 -117 39z"/>
<path d="M5422 4896 c-126 -49 -123 -34 -48 -231 35 -94 70 -174 78 -179 10
-6 48 4 119 30 92 35 104 43 107 65 4 34 -18 52 -49 40 -13 -5 -47 -18 -76
-30 l-51 -20 -15 44 -15 44 44 17 c39 15 45 21 42 43 -3 22 -8 26 -33 24 -16
-1 -42 -4 -56 -8 -23 -6 -27 -2 -41 33 l-16 40 74 28 c77 30 91 43 74 75 -14
26 -40 23 -138 -15z"/>
<path d="M5203 4810 c-30 -12 -29 -33 6 -124 16 -42 27 -76 24 -76 -2 0 -40
32 -84 70 -43 39 -88 70 -98 70 -10 0 -29 -8 -42 -19 l-23 -18 38 -99 c21 -54
52 -134 68 -176 31 -82 44 -91 89 -68 25 14 24 22 -11 114 -17 43 -29 80 -28
82 2 1 39 -29 83 -67 53 -45 89 -69 106 -69 28 0 49 16 49 40 0 32 -127 345
-141 347 -8 1 -24 -2 -36 -7z"/>
<path d="M4866 4675 c-14 -14 -14 -20 3 -63 10 -26 40 -104 66 -174 26 -70 53
-129 61 -132 17 -6 61 12 67 28 4 10 -108 313 -126 344 -11 17 -52 15 -71 -3z"/>
<path d="M4710 4625 c-54 -17 -106 -65 -115 -105 -8 -39 20 -97 55 -115 16 -8
55 -18 87 -21 70 -8 93 -19 93 -43 0 -32 -29 -46 -94 -46 -61 0 -61 0 -61 -30
0 -79 175 -65 226 19 52 85 -7 179 -119 191 -91 10 -102 14 -102 35 0 24 29
40 89 49 36 5 47 11 49 26 5 46 -38 62 -108 40z"/>
<path d="M4468 4529 c-26 -15 -23 -31 27 -162 48 -127 52 -146 33 -165 -18
-18 -66 -15 -79 6 -7 10 -33 72 -58 138 -41 105 -49 119 -72 122 -15 2 -32 -4
-41 -15 -15 -17 -12 -28 38 -158 62 -161 81 -185 150 -185 58 0 103 20 137 59
38 45 34 74 -26 231 -54 141 -66 155 -109 129z"/>
<path d="M4047 4373 c-38 -14 -71 -32 -74 -39 -2 -7 12 -57 32 -111 89 -237
96 -253 114 -253 34 0 166 60 189 86 24 27 28 67 11 111 -14 38 -48 73 -72 73
-16 0 -17 3 -7 15 18 22 6 92 -21 121 -30 32 -83 31 -172 -3z m113 -72 c16
-32 12 -41 -26 -57 -20 -8 -37 -14 -38 -12 -8 13 -26 61 -24 63 37 29 74 31
88 6z m54 -127 c22 -22 30 -62 17 -78 -7 -8 -24 -17 -39 -21 -15 -4 -29 -7
-31 -8 -3 -2 -42 96 -38 99 4 2 62 22 69 23 4 1 14 -6 22 -15z"/>
<path d="M5125 3603 c-75 -16 -225 -86 -225 -104 0 -5 -6 -9 -14 -9 -8 0 -17
-6 -19 -12 -4 -10 -8 -10 -15 1 -7 9 -19 11 -38 7 -21 -6 -25 -9 -14 -16 11
-7 9 -11 -10 -18 -31 -12 -56 -35 -99 -92 -19 -25 -39 -51 -45 -58 -8 -11 -3
-12 26 -7 20 4 44 3 54 -3 15 -9 15 -10 -7 -17 -13 -4 -34 -19 -46 -33 l-22
-26 5 24 c6 24 5 24 -14 -4 -12 -17 -19 -33 -16 -37 8 -14 164 16 164 31 0 4
-18 4 -40 0 -22 -4 -43 -3 -46 2 -3 4 -2 8 3 7 19 -5 103 14 112 25 8 10 3 12
-22 9 -26 -3 -28 -1 -12 6 19 9 19 10 -2 10 -13 1 -23 6 -23 11 0 6 27 10 61
10 52 0 60 -2 55 -16 -4 -12 6 -8 31 11 59 44 93 77 87 87 -3 4 2 8 10 8 9 0
24 8 34 18 25 24 107 68 97 52 -6 -10 -3 -12 11 -7 22 8 23 8 -83 -67 -62 -46
-127 -109 -107 -105 21 4 23 -2 7 -19 -10 -10 -44 -24 -75 -31 -68 -15 -76
-27 -15 -24 23 1 34 0 25 -3 -10 -3 -18 -12 -18 -20 0 -11 -6 -13 -22 -9 -25
8 -24 8 -55 6 -33 -2 -29 -29 5 -34 22 -3 21 -4 -10 -6 -29 -1 -36 -5 -33 -18
2 -10 4 -32 4 -50 1 -23 5 -31 14 -27 10 4 12 -3 9 -26 -3 -19 0 -30 8 -30 8
0 11 14 8 43 -2 31 0 41 11 39 7 -1 19 2 27 9 8 6 23 9 34 6 11 -3 18 -1 14 4
-3 5 5 9 18 8 13 0 17 -3 11 -6 -21 -8 -15 -21 15 -31 26 -10 25 -10 -13 -11
-23 -1 -46 4 -53 11 -18 18 -30 -2 -21 -37 3 -16 7 -25 8 -20 0 6 16 9 33 8
18 -1 41 -2 51 -2 12 -1 17 -9 17 -29 0 -19 5 -29 15 -29 18 0 20 33 3 40 -7
2 -10 8 -6 12 4 4 17 -9 29 -30 14 -24 24 -32 29 -25 6 9 9 9 12 0 3 -10 9
-10 27 -1 23 13 25 12 62 -41 3 -5 19 -2 35 7 27 14 27 15 6 15 -20 0 -21 3
-12 20 13 24 30 26 30 5 0 -8 4 -15 9 -15 5 0 16 -3 25 -6 12 -4 16 0 16 15 0
12 -6 21 -16 21 -33 0 -7 23 29 25 31 2 37 -1 38 -19 0 -20 1 -20 8 -2 5 14
10 16 15 8 4 -7 12 -10 17 -6 5 3 7 9 4 14 -3 5 -1 11 5 15 5 3 10 0 10 -8 0
-8 9 -25 20 -38 l19 -24 -4 32 c-2 18 -6 37 -10 43 -3 5 -2 17 3 26 11 19 -6
84 -21 84 -6 0 -6 5 1 13 20 25 -9 125 -36 120 -8 -2 -9 7 -5 29 4 21 3 29 -5
24 -6 -3 -14 -1 -18 5 -3 6 -2 14 4 18 7 4 8 19 2 46 -13 54 -12 85 1 85 20 0
40 -29 60 -87 18 -52 32 -72 52 -73 14 0 7 40 -20 105 -22 54 -24 68 -14 78 9
8 15 8 17 2 2 -6 24 -33 49 -60 l45 -48 0 31 c0 23 -8 36 -32 53 -18 13 -37
29 -43 35 -11 14 -126 24 -118 11 2 -4 -8 -5 -23 -1 -19 5 -25 4 -20 -5 9 -13
-3 -14 -23 -2 -11 7 -4 12 25 20 21 6 47 11 57 11 9 0 17 5 17 10 0 6 -8 10
-17 10 -15 0 -16 2 -3 10 8 5 11 10 5 11 -5 1 -14 3 -20 4 -5 2 -21 3 -35 4
-20 1 -22 3 -10 11 15 10 -83 13 -125 3z m52 -117 c0 -8 -6 -12 -15 -9 -11 5
-11 7 0 14 7 5 13 9 14 9 0 0 1 -6 1 -14z m-337 -16 c0 -5 -5 -10 -11 -10 -5
0 -7 5 -4 10 3 6 8 10 11 10 2 0 4 -4 4 -10z m-33 -86 c-3 -3 -12 -4 -19 -1
-8 3 -5 6 6 6 11 1 17 -2 13 -5z m394 -31 l24 -26 -27 19 c-15 10 -28 22 -28
27 0 12 5 8 31 -20z m-364 -29 c-3 -3 -12 -4 -19 -1 -8 3 -5 6 6 6 11 1 17 -2
13 -5z m-107 -14 c0 -5 -7 -7 -15 -4 -8 4 -15 8 -15 10 0 2 7 4 15 4 8 0 15
-4 15 -10z m320 0 c0 -5 -11 -10 -25 -10 -14 0 -25 5 -25 10 0 6 11 10 25 10
14 0 25 -4 25 -10z m37 -6 c-3 -3 -12 -4 -19 -1 -8 3 -5 6 6 6 11 1 17 -2 13
-5z m102 -24 c10 -6 10 -8 -3 -13 -11 -4 -15 -3 -10 4 4 7 0 9 -13 5 -13 -4
-25 0 -33 9 -12 14 -10 15 16 9 16 -4 35 -10 43 -14z m75 -15 c3 -8 1 -15 -4
-15 -6 0 -10 7 -10 15 0 8 2 15 4 15 2 0 6 -7 10 -15z m-116 -21 c46 -13 19
-24 -55 -22 -43 0 -62 3 -43 5 19 3 39 9 45 14 10 10 21 11 53 3z m-201 -30
c-3 -3 -12 -4 -19 -1 -8 3 -5 6 6 6 11 1 17 -2 13 -5z m303 -3 c0 -4 -11 -6
-25 -3 -14 2 -25 6 -25 8 0 2 11 4 25 4 14 0 25 -4 25 -9z m-215 -19 c28 0 53
6 57 12 6 8 8 7 8 -1 0 -8 13 -13 33 -13 25 0 29 -3 17 -10 -8 -6 -36 -8 -62
-4 -37 4 -48 3 -48 -8 0 -8 -3 -9 -8 -3 -4 6 -22 10 -41 10 -20 0 -36 6 -39
14 -3 8 0 11 7 7 6 -4 11 -1 11 6 0 10 2 10 8 1 5 -7 28 -12 57 -11z m309
-103 c6 -5 3 -11 -7 -15 -19 -7 -87 14 -87 27 0 11 80 1 94 -12z m-347 -5 c9
-8 20 -11 24 -7 12 12 81 4 73 -8 -9 -15 -100 -11 -114 6 -7 8 -16 12 -21 9
-5 -3 -9 0 -9 5 0 16 29 13 47 -5z m241 -13 c11 -7 11 -9 -1 -14 -16 -6 -27 0
-27 15 0 10 11 10 28 -1z m-83 -32 c4 -5 -8 -9 -25 -9 -17 0 -29 4 -26 8 7 11
45 12 51 1z m155 -15 c0 -8 -5 -12 -10 -9 -6 4 -8 11 -5 16 9 14 15 11 15 -7z
m-165 -23 c3 -5 1 -12 -5 -16 -5 -3 -10 1 -10 9 0 18 6 21 15 7z"/>
<path d="M5105 3450 c-3 -6 1 -7 9 -4 18 7 21 14 7 14 -6 0 -13 -4 -16 -10z"/>
<path d="M5480 3366 c0 -8 5 -18 10 -21 6 -3 10 1 10 9 0 8 -4 18 -10 21 -5 3
-10 -1 -10 -9z"/>
<path d="M5883 3334 c-23 -10 -51 -69 -63 -134 -9 -48 -10 -95 -3 -180 13
-165 -4 -345 -38 -389 -11 -13 -19 -32 -19 -42 0 -11 -4 -19 -10 -19 -5 0 -16
-13 -25 -29 -8 -17 -47 -63 -85 -103 -39 -40 -68 -79 -65 -85 2 -7 -7 -25 -21
-40 -24 -27 -25 -27 -19 -5 l7 23 -40 -26 c-27 -18 -55 -27 -93 -29 -33 -2
-77 -14 -111 -30 -48 -23 -71 -27 -140 -27 -81 0 -285 24 -296 35 -3 3 1 6 9
6 11 0 11 2 -1 10 -8 5 -18 10 -23 10 -20 0 28 -138 55 -158 9 -7 23 -18 30
-25 51 -49 200 -87 346 -87 43 0 101 -7 127 -15 27 -8 52 -12 57 -9 12 8 -21
44 -39 44 -7 0 -13 5 -13 11 0 8 17 10 55 6 64 -6 133 -42 183 -94 17 -19 32
-32 32 -29 0 3 -13 35 -30 71 -16 36 -30 70 -30 75 0 26 43 5 86 -42 50 -56
52 -54 28 30 -11 37 20 27 60 -20 l36 -42 0 33 c0 19 4 30 10 26 6 -3 10 0 10
8 0 8 6 20 14 26 8 7 17 30 21 52 4 21 11 39 15 39 13 0 41 61 34 72 -4 6 4 5
16 -2 15 -8 20 -8 16 -1 -4 6 -2 11 3 11 6 0 11 8 11 19 0 36 22 81 40 81 13
0 20 11 24 38 4 20 13 51 21 67 8 17 26 56 41 88 14 31 30 57 34 57 6 0 30 44
30 56 0 3 -5 2 -12 -2 -7 -4 -8 -3 -4 4 4 6 13 9 21 6 10 -4 16 3 20 23 4 15
13 55 20 87 8 32 12 63 9 67 -3 5 2 19 11 32 21 33 23 143 2 183 -27 51 -69
58 -115 19 -35 -29 -42 -31 -42 -10 0 8 -9 20 -20 27 -16 10 -20 24 -20 65 0
62 -10 92 -47 138 -23 28 -35 35 -63 34 -19 0 -40 -3 -47 -5z m7 -781 c0 -5
-10 -19 -21 -33 l-21 -25 18 33 c18 32 24 38 24 25z"/>
<path d="M5515 3203 c8 -27 15 -58 15 -70 0 -13 10 -33 22 -45 l21 -21 9 24
c8 20 11 21 19 9 8 -11 9 -7 4 15 -4 17 -11 32 -16 33 -5 2 -7 8 -3 13 3 5 0
9 -5 9 -6 0 -11 6 -11 13 0 13 -50 67 -63 67 -3 0 0 -21 8 -47z"/>
<path d="M5672 3208 c3 -7 15 -15 28 -16 21 -3 22 -2 11 12 -16 19 -44 21 -39
4z"/>
<path d="M5652 3185 c0 -11 5 -38 13 -60 12 -38 13 -39 14 -10 0 17 -6 44 -14
60 -10 23 -13 25 -13 10z"/>
<path d="M5715 3181 c-11 -5 -23 -7 -27 -4 -5 2 -8 -1 -8 -6 0 -6 5 -11 11
-11 5 0 7 -5 3 -12 -4 -7 -3 -8 4 -4 8 4 16 -3 22 -18 6 -18 17 -26 32 -26 21
1 21 2 5 11 -14 8 -15 14 -7 24 8 10 8 19 0 34 -6 12 -12 21 -13 20 -1 0 -11
-4 -22 -8z"/>
<path d="M4725 3130 c3 -5 11 -10 16 -10 6 0 7 5 4 10 -3 6 -11 10 -16 10 -6
0 -7 -4 -4 -10z"/>
<path d="M4691 3104 c0 -11 3 -14 6 -6 3 7 2 16 -1 19 -3 4 -6 -2 -5 -13z"/>
<path d="M3796 3093 c-3 -3 -6 -27 -6 -52 l1 -46 19 25 c11 14 25 31 31 38 12
15 12 15 -17 30 -12 6 -24 8 -28 5z"/>
<path d="M5590 3040 c0 -14 7 -20 22 -20 20 0 21 1 3 20 -10 11 -20 20 -22 20
-1 0 -3 -9 -3 -20z"/>
<path d="M4870 2981 c0 -11 5 -23 10 -26 6 -4 10 5 10 19 0 14 -4 26 -10 26
-5 0 -10 -9 -10 -19z"/>
<path d="M4925 2990 c-3 -5 -1 -10 4 -10 6 0 11 5 11 10 0 6 -2 10 -4 10 -3 0
-8 -4 -11 -10z"/>
<path d="M5450 2979 c0 -3 5 -20 11 -38 l11 -32 19 22 c30 35 25 60 -11 57
-16 -1 -30 -5 -30 -9z"/>
<path d="M5257 2950 c3 -11 7 -20 9 -20 2 0 4 9 4 20 0 11 -4 20 -9 20 -5 0
-7 -9 -4 -20z"/>
<path d="M5291 2942 c-1 -7 15 -20 34 -28 44 -18 45 -18 45 7 0 19 -4 21 -34
16 -22 -3 -37 -1 -40 6 -3 8 -5 8 -5 -1z"/>
<path d="M5690 2856 c0 -9 5 -16 10 -16 6 0 10 4 10 9 0 6 -4 13 -10 16 -5 3
-10 -1 -10 -9z"/>
<path d="M4770 2826 c0 -2 7 -7 16 -10 8 -3 12 -2 9 4 -6 10 -25 14 -25 6z"/>
<path d="M6401 2754 c0 -11 3 -14 6 -6 3 7 2 16 -1 19 -3 4 -6 -2 -5 -13z"/>
<path d="M4966 1501 c-4 -5 -2 -21 4 -36 5 -14 9 -29 9 -33 -4 -25 3 -52 11
-47 6 4 10 -7 10 -27 0 -25 3 -29 10 -18 12 18 3 91 -16 138 -14 34 -19 38
-28 23z"/>
<path d="M5593 1399 c-10 -52 -10 -66 1 -77 25 -26 252 -47 300 -29 12 5 16
21 16 69 0 35 -4 69 -9 76 -6 9 -49 15 -152 19 l-144 6 -12 -64z"/>
<path d="M5462 1425 c-11 -14 -22 -25 -26 -25 -3 0 -35 -20 -71 -44 l-66 -44
102 -1 c111 -2 136 7 118 41 -6 10 -11 35 -13 55 -2 45 -18 52 -44 18z"/>
<path d="M6017 1400 c-3 -8 -8 -34 -10 -58 -4 -35 -2 -45 16 -57 45 -32 77
-15 77 40 0 18 -7 25 -28 30 -19 4 -32 15 -39 33 -7 20 -12 23 -16 12z"/>
<path d="M5027 1321 c-22 -37 -23 -59 -3 -42 17 14 39 71 28 71 -4 0 -15 -13
-25 -29z"/>
<path d="M4950 1088 c-11 -18 -20 -40 -20 -49 0 -17 63 -39 255 -89 114 -30
123 -31 187 -19 66 12 66 12 105 -17 54 -42 128 -69 282 -104 240 -54 288 -34
93 40 -59 22 -115 45 -125 51 -10 5 -42 13 -70 16 -29 3 -70 16 -92 28 -22 13
-67 31 -99 40 -32 9 -78 26 -102 36 -26 12 -84 23 -144 29 -79 6 -114 15 -166
39 -37 17 -70 31 -75 31 -5 0 -18 -15 -29 -32z"/>
<path d="M4886 931 c15 -14 74 -31 107 -31 16 0 46 -9 66 -19 67 -35 136 -54
202 -55 59 -1 68 -4 90 -29 20 -23 51 -35 184 -71 178 -48 264 -70 375 -96 69
-16 157 -47 204 -72 14 -8 24 -4 47 18 16 15 29 31 29 35 0 4 -22 10 -50 14
-50 7 -165 38 -275 73 -33 11 -80 25 -105 31 -116 30 -561 139 -605 149 -27 6
-95 22 -150 36 -106 27 -135 32 -119 17z"/>
<path d="M5740 556 c0 -2 7 -7 16 -10 8 -3 12 -2 9 4 -6 10 -25 14 -25 6z"/>
<path d="M5901 506 c13 -12 155 -44 162 -37 5 5 -21 16 -61 25 -68 15 -110 20
-101 12z"/>
<path d="M4800 386 c0 -9 5 -16 10 -16 6 0 10 4 10 9 0 6 -4 13 -10 16 -5 3
-10 -1 -10 -9z"/>
<path d="M7283 6329 c-174 -22 -336 -173 -372 -347 -6 -29 -11 -145 -11 -256
0 -172 -2 -205 -15 -210 -12 -4 -15 -27 -15 -121 0 -94 3 -117 15 -121 12 -5
15 -26 15 -100 0 -75 -3 -96 -15 -100 -13 -5 -15 -40 -15 -225 0 -186 2 -221
15 -225 10 -4 15 -21 15 -54 0 -33 -5 -50 -15 -54 -13 -4 -15 -39 -15 -226 0
-187 2 -222 15 -226 13 -5 15 -209 15 -1745 0 -1239 3 -1753 11 -1791 35 -165
165 -302 325 -343 54 -14 197 -15 1210 -13 l1149 3 57 23 c128 52 222 150 270
283 l23 64 3 1821 c2 1594 4 1823 17 1834 22 18 22 701 1 719 -12 10 -15 96
-18 529 -3 509 -4 518 -26 581 -59 163 -196 276 -367 301 -84 12 -2179 12
-2272 -1z m380 -239 c6 -69 31 -111 79 -131 27 -11 154 -14 693 -14 l660 0 31
22 c41 29 64 79 64 137 l0 46 181 0 c112 0 197 -5 221 -12 53 -16 131 -87 154
-140 18 -41 19 -93 19 -1163 0 -616 -2 -1194 -4 -1284 l-4 -165 -19 25 c-11
13 -50 56 -87 94 -36 39 -82 91 -100 117 -50 70 -119 111 -230 138 -36 9 -64
3 -55 -11 3 -5 -2 -6 -10 -3 -9 3 -14 9 -11 13 2 4 -20 6 -50 4 -47 -2 -55 0
-56 15 -1 15 -2 15 -6 1 -4 -15 -63 -36 -85 -31 -21 5 0 -32 22 -41 9 -3 6 -6
-10 -6 -14 -1 -32 -6 -40 -12 -12 -8 -10 -9 8 -4 27 8 65 -3 57 -16 -4 -5 1
-12 10 -15 13 -6 14 -8 3 -15 -8 -6 1 -9 25 -9 42 0 48 -22 8 -28 -16 -3 -20
-8 -16 -23 5 -15 1 -19 -22 -20 -17 -1 -21 -3 -10 -6 21 -5 23 -31 2 -39 -18
-7 -20 -34 -3 -34 6 0 3 -7 -8 -15 -19 -15 -19 -15 0 -30 10 -8 16 -20 13 -28
-3 -8 -1 -20 3 -28 6 -8 4 -16 -3 -21 -9 -6 -8 -8 3 -8 9 -1 5 -6 -10 -15 -14
-8 -19 -14 -11 -15 8 0 4 -8 -10 -20 l-24 -19 25 -2 25 -1 -25 -8 c-73 -24
-90 -28 -90 -19 0 5 14 12 30 16 17 3 30 10 30 15 0 6 -6 8 -12 5 -44 -16 -60
-18 -54 -8 4 7 -1 11 -13 11 -12 0 -21 -5 -21 -10 0 -6 -6 -9 -12 -8 -7 2 -12
-3 -10 -11 3 -12 1 -12 -13 -1 -11 9 -19 10 -27 2 -7 -7 -3 -20 15 -44 48 -65
62 -95 21 -48 -181 209 -180 207 -174 235 1 5 -2 7 -6 3 -3 -4 -18 2 -32 13
l-26 20 -48 -48 c-27 -26 -82 -87 -123 -134 l-74 -86 30 -32 c16 -18 29 -36
29 -40 0 -5 7 -14 15 -21 9 -7 14 -18 12 -24 -3 -6 3 -19 11 -29 14 -16 14
-17 0 -12 -16 6 -26 -13 -34 -69 -2 -16 -12 -38 -21 -48 -9 -10 -13 -18 -8
-18 4 0 2 -6 -5 -14 -6 -8 -17 -13 -24 -10 -9 3 -15 -8 -20 -35 -3 -23 -12
-41 -19 -41 -7 0 -17 -8 -24 -19 -8 -13 -19 -17 -39 -13 -25 5 -26 3 -20 -22
6 -24 5 -26 -19 -20 -29 7 -33 -9 -12 -41 8 -11 16 -30 19 -42 l6 -22 -32 22
c-17 12 -34 26 -38 32 -4 5 -15 5 -30 -2 -13 -6 -46 -14 -75 -17 -62 -8 -115
-25 -108 -36 3 -4 -3 -11 -13 -14 -9 -3 -28 -13 -41 -21 l-25 -14 27 -12 c23
-10 45 -44 35 -54 -1 -2 -62 -5 -133 -6 -107 -2 -136 1 -162 14 l-33 18 -2
-28 c-2 -50 4 -87 18 -115 8 -16 19 -51 24 -80 6 -28 12 -53 14 -55 6 -6 60
23 123 65 42 28 53 40 53 62 0 15 8 34 18 43 16 15 29 16 177 18 22 1 72 5
110 10 55 8 79 7 110 -5 25 -9 44 -11 49 -5 6 5 24 9 40 8 l31 -1 -32 -11 -32
-12 34 -23 c19 -12 35 -27 35 -32 0 -6 6 -10 14 -10 8 0 18 -5 22 -12 4 -7 3
-8 -4 -4 -7 4 -12 2 -12 -3 0 -6 4 -11 10 -11 5 0 9 -3 8 -7 -1 -5 13 -39 30
-76 18 -37 48 -114 67 -170 19 -56 35 -91 35 -77 0 19 6 13 25 -28 37 -80 66
-178 89 -299 6 -34 14 -65 19 -69 4 -4 7 -22 7 -40 0 -42 9 -64 25 -64 8 0 11
-8 8 -23 -4 -18 -3 -19 7 -7 10 12 11 11 6 -9 -7 -32 22 -86 82 -155 26 -30
65 -89 85 -130 30 -61 43 -78 71 -90 18 -8 37 -19 40 -25 4 -6 14 -11 23 -11
12 0 14 7 10 29 -4 16 -2 31 4 33 5 2 12 35 15 73 5 76 -2 92 -59 130 -27 17
-30 44 -7 68 4 5 90 -103 191 -239 200 -271 348 -455 443 -552 l61 -62 -20
-36 c-10 -19 -35 -49 -54 -66 -71 -62 -73 -63 -456 -66 -340 -3 -441 1 -430
17 2 5 18 11 35 14 23 5 28 10 23 23 -5 12 -3 15 6 9 8 -5 21 2 35 17 11 14
26 27 33 29 8 2 9 9 4 18 -7 11 -16 8 -47 -13 -21 -14 -49 -26 -61 -26 -12 0
-25 -5 -28 -10 -4 -6 -11 -8 -16 -4 -6 3 -35 9 -65 13 -40 6 -54 5 -54 -5 0
-13 56 -64 71 -64 5 0 9 -5 9 -10 0 -8 -75 -9 -237 -5 -131 4 -238 7 -239 8
-1 1 6 38 14 82 16 78 16 79 23 40 4 -22 4 -45 2 -52 -3 -7 0 -13 6 -13 6 0
11 12 11 26 0 14 4 23 10 19 6 -3 10 -13 10 -21 0 -9 6 -21 13 -28 26 -26 46
-13 78 49 l32 62 -17 54 c-10 29 -31 68 -46 86 -28 31 -28 31 -46 12 -13 -15
-25 -18 -48 -14 -69 14 -210 61 -359 121 -88 35 -162 64 -167 64 -4 0 -7 -10
-6 -22 1 -16 12 -28 36 -39 33 -16 34 -18 32 -70 0 -30 -8 -85 -17 -124 -9
-38 -17 -77 -19 -85 -11 -61 -19 -90 -27 -90 -5 0 -9 -13 -9 -30 0 -25 -4 -30
-34 -36 -19 -3 -131 -4 -248 -2 -233 4 -254 9 -321 67 -19 18 -46 53 -59 79
l-23 47 0 2715 0 2715 29 53 c16 28 44 64 63 78 61 46 95 53 294 53 l186 1 6
-60z m942 -15 c0 -19 -8 -20 -194 -23 -114 -1 -199 2 -204 7 -5 5 -7 17 -4 26
6 13 31 15 204 13 190 -3 198 -4 198 -23z m145 -2786 c0 -19 -137 -175 -146
-166 -6 6 127 176 139 177 4 0 7 -5 7 -11z m30 -39 c0 -5 -23 -36 -51 -67 -85
-95 -89 -99 -89 -83 0 8 27 48 60 88 57 67 80 86 80 62z m23 -37 c6 -10 -119
-150 -127 -142 -6 6 105 148 116 149 4 0 9 -3 11 -7z m27 -36 c0 -15 -97 -127
-111 -127 -5 0 -2 8 6 18 8 9 33 41 55 70 44 55 50 60 50 39z m23 -49 c-52
-70 -87 -107 -94 -102 -5 3 14 32 42 65 28 33 54 57 57 55 3 -3 1 -11 -5 -18z
m147 -80 c0 -6 -1 -9 -3 -7 -2 2 -15 22 -31 44 l-28 40 31 -33 c17 -18 31 -37
31 -44z m-110 53 c0 -12 -80 -101 -91 -101 -6 0 9 25 33 55 40 52 58 66 58 46z
m-86 -167 c9 -3 16 -10 16 -16 0 -5 -5 -6 -10 -3 -19 12 -48 -6 -64 -38 -9
-20 -16 -25 -16 -14 0 16 -1 16 -18 0 -10 -10 -40 -30 -65 -45 -26 -15 -47
-33 -46 -40 0 -7 16 -26 35 -42 19 -15 32 -21 28 -13 -3 10 2 20 15 27 15 7
21 8 21 0 0 -6 8 -10 18 -8 12 2 16 -3 14 -17 -2 -19 -2 -19 9 -2 6 11 9 30 6
43 l-4 25 22 -21 c27 -26 35 -18 35 39 0 38 2 42 13 29 6 -9 23 -18 37 -20 35
-4 35 -29 1 -53 -51 -36 -130 -100 -130 -107 -1 -11 113 23 141 44 35 25 36
16 2 -16 -15 -13 -45 -29 -68 -35 -63 -16 -172 -23 -193 -13 -10 5 -31 15 -48
23 -38 18 -43 44 -16 80 17 23 20 37 15 68 -4 22 -4 52 0 66 6 24 10 25 74 25
49 0 75 5 97 19 32 21 54 25 79 15z m95 -38 c34 -18 51 -53 40 -83 -12 -33
-22 -28 -42 20 -9 23 -29 50 -45 59 -26 17 -26 17 -4 18 13 0 35 -6 51 -14z
m-569 -316 c0 -5 -15 -10 -32 -9 -28 0 -30 2 -13 9 28 12 45 12 45 0z m105
-30 c-3 -5 -27 -9 -53 -9 -42 1 -44 2 -17 9 45 11 77 11 70 0z m-205 -41 c-19
-12 -39 -27 -43 -33 -5 -7 -7 -3 -5 9 3 20 41 45 68 45 8 0 -1 -10 -20 -21z
m-352 -66 c-10 -2 -26 -2 -35 0 -10 3 -2 5 17 5 19 0 27 -2 18 -5z m1740 -12
c11 -7 11 -9 -1 -14 -9 -3 -18 1 -21 9 -6 16 2 18 22 5z m-29 -40 c37 -21 89
-46 115 -56 49 -19 60 -31 54 -60 -2 -13 -14 -8 -63 22 -33 20 -70 47 -82 60
-12 13 -43 32 -68 43 -43 19 -57 30 -35 30 6 0 41 -17 79 -39z m77 -209 c44
12 57 3 18 -13 -23 -10 -25 -13 -11 -16 9 -3 15 -8 13 -11 -2 -4 12 -8 31 -9
33 -2 34 -1 19 16 -22 24 -20 41 4 41 17 0 20 -7 20 -38 l0 -38 -51 6 c-28 4
-55 13 -60 21 -7 12 -9 12 -9 0 0 -11 -5 -10 -20 4 -11 10 -20 13 -20 7 0 -7
-8 -4 -18 6 -10 9 -27 22 -38 29 -13 8 -2 7 34 -2 38 -10 62 -11 88 -3z m-129
-75 c7 -5 10 -13 8 -18 -5 -7 -75 27 -75 37 0 7 54 -8 67 -19z m223 -41 c0
-18 -46 -26 -66 -11 -9 6 -27 10 -39 7 -13 -2 -26 1 -29 7 -5 8 15 11 63 11
54 0 71 -3 71 -14z"/>
<path d="M9083 5624 c-8 -4 -3 -30 17 -90 16 -46 27 -84 25 -84 -3 0 -27 34
-55 75 -28 41 -54 75 -58 75 -31 -1 -29 -21 19 -173 28 -86 53 -157 57 -157 4
0 14 4 22 10 12 8 11 19 -9 82 -13 40 -26 80 -28 88 -3 8 19 -21 49 -65 41
-61 59 -79 73 -77 11 2 21 5 22 6 7 6 -103 316 -112 315 -5 0 -15 -3 -22 -5z"/>
<path d="M8800 5533 c-25 -9 -46 -17 -47 -18 -3 -1 98 -307 103 -314 1 -1 26
5 54 14 45 15 50 20 44 38 -9 29 -8 29 -38 17 -23 -8 -28 -7 -35 13 -22 59
-22 65 -1 72 14 4 19 12 16 22 -3 8 -6 19 -6 25 0 6 -10 8 -24 4 -20 -5 -26
-1 -35 26 -14 41 -14 58 2 58 25 0 39 17 32 39 -7 24 -6 24 -65 4z"/>
<path d="M8542 5444 c-15 -10 -22 -25 -22 -48 0 -35 62 -230 81 -252 13 -16
65 -19 74 -4 3 6 15 10 26 10 10 0 19 5 19 12 0 21 -44 148 -51 148 -4 0 -19
-4 -33 -9 -18 -7 -23 -15 -19 -30 3 -11 10 -19 15 -18 6 1 15 -11 20 -26 12
-33 3 -66 -13 -50 -14 14 -78 220 -71 227 12 13 24 4 33 -24 11 -30 41 -41 54
-20 9 15 -21 77 -43 89 -28 15 -44 14 -70 -5z"/>
<path d="M8152 5322 c-30 -10 -53 -20 -53 -24 1 -5 1 -15 1 -23 0 -10 10 -15
28 -15 28 0 30 -4 67 -125 21 -69 41 -128 45 -130 4 -2 16 -2 27 1 20 6 20 9
-23 136 -24 72 -41 135 -38 139 3 5 12 9 20 9 15 0 17 9 8 34 -7 19 -13 19
-82 -2z"/>
<path d="M7957 5253 c-4 -3 -7 -27 -7 -52 l0 -46 -25 38 c-24 34 -57 48 -69
29 -2 -4 18 -37 45 -72 l48 -65 1 -92 c0 -92 0 -92 23 -84 19 8 22 14 19 60
-2 28 -1 51 1 51 2 0 16 -18 31 -40 24 -37 57 -52 69 -32 3 4 -20 41 -50 82
l-55 75 5 78 c3 67 2 77 -13 77 -9 0 -20 -3 -23 -7z"/>
<path d="M7678 5168 c-21 -5 -38 -15 -38 -21 0 -7 21 -79 47 -160 52 -164 46
-158 126 -128 41 16 33 46 -12 46 -30 0 -36 4 -47 35 -17 46 -17 50 0 50 20 0
26 12 19 38 -4 17 -11 20 -28 16 -19 -5 -25 0 -35 31 -13 39 -5 54 28 55 19 0
11 44 -8 46 -8 1 -32 -2 -52 -8z"/>
<path d="M7478 5100 c-15 -9 -14 -17 12 -95 16 -47 27 -85 26 -85 -2 0 -27 36
-55 79 -42 63 -56 78 -72 74 -10 -3 -19 -8 -19 -12 0 -3 23 -75 51 -158 34
-104 55 -153 65 -153 25 0 25 23 -1 99 -14 41 -23 76 -21 78 2 2 25 -30 52
-71 26 -42 51 -76 55 -76 37 0 36 11 -14 171 -28 87 -53 159 -56 159 -3 0 -14
-5 -23 -10z"/>
<path d="M7971 4677 c-6 -8 -26 -65 -45 -127 -19 -62 -37 -114 -40 -117 -2 -2
-14 26 -26 64 -37 117 -40 123 -66 123 -29 0 -71 -19 -77 -34 -5 -11 141 -470
156 -493 12 -19 62 -16 88 6 l23 19 -23 74 c-17 55 -21 82 -15 101 l9 27 100
-80 c72 -58 107 -80 124 -78 31 4 65 49 57 74 -6 15 -125 117 -223 191 -14 11
-12 22 21 109 20 53 36 102 36 109 0 36 -75 60 -99 32z"/>
<path d="M8544 3417 c-111 -115 -178 -197 -167 -208 11 -11 43 -2 43 12 0 5 7
9 16 9 8 0 13 4 10 9 -3 4 19 33 49 62 63 62 156 167 138 156 -6 -4 -16 -1
-20 8 -7 12 -21 2 -69 -48z"/>
<path d="M8839 3282 c10 -18 15 -21 26 -12 8 7 18 9 23 6 5 -3 9 0 9 7 0 7 -8
13 -18 13 -10 0 -15 -4 -13 -8 8 -13 -11 -9 -25 5 -11 10 -11 8 -2 -11z"/>
<path d="M8181 2664 c0 -11 3 -14 6 -6 3 7 2 16 -1 19 -3 4 -6 -2 -5 -13z"/>
<path d="M8477 1208 c-5 -17 22 -58 38 -58 13 0 35 -42 35 -69 0 -10 -11 -39
-25 -66 -22 -45 -23 -49 -7 -61 20 -16 148 -19 157 -4 3 6 14 10 23 10 11 0
18 9 19 26 0 15 5 29 10 33 6 3 13 21 16 39 5 24 3 32 -8 32 -8 0 -15 5 -15
10 0 6 5 10 10 10 6 0 10 11 10 25 0 13 8 29 18 34 9 6 11 11 5 11 -7 0 -13 9
-13 21 l0 21 -32 -20 c-43 -27 -160 -43 -177 -25 -8 9 -8 13 -1 13 7 0 5 6 -4
15 -18 18 -53 20 -59 3z"/>
<path d="M9031 1010 c14 -28 29 -181 17 -174 -11 7 -10 -10 1 -21 6 -6 6 -26
0 -53 -6 -28 -6 -49 1 -60 9 -17 11 -15 15 23 1 11 5 29 8 40 24 76 29 223 7
210 -5 -3 -20 9 -35 27 -20 25 -24 27 -14 8z"/>
<path d="M8463 925 c-3 -9 -3 -18 -1 -21 3 -3 8 4 11 16 6 23 -1 27 -10 5z"/>
<path d="M8412 815 c-16 -34 -15 -52 2 -52 16 0 31 56 18 69 -5 5 -14 -3 -20
-17z"/>
<path d="M9016 734 c-9 -8 -16 -19 -16 -23 0 -13 40 -45 47 -38 3 4 1 7 -6 7
-9 0 -12 11 -9 35 5 40 5 40 -16 19z"/>
<path d="M8993 676 c15 -12 16 -14 2 -20 -8 -3 -15 -13 -15 -23 0 -16 2 -15
20 3 23 23 18 54 -9 54 -14 -1 -14 -2 2 -14z"/>
<path d="M8940 501 c0 -5 7 -12 16 -15 24 -9 28 -7 14 9 -14 17 -30 20 -30 6z"/>
<path d="M10633 6329 c-175 -22 -335 -172 -372 -347 -6 -29 -11 -143 -11 -254
0 -161 -3 -203 -14 -212 -10 -7 -16 -44 -21 -112 -7 -95 -6 -103 14 -123 18
-18 21 -33 21 -109 0 -75 -3 -90 -20 -105 -19 -16 -20 -29 -20 -217 0 -187 1
-201 20 -220 13 -13 20 -33 20 -60 0 -27 -7 -47 -20 -60 -19 -19 -20 -33 -20
-220 0 -187 1 -201 20 -220 20 -20 20 -33 20 -1762 0 -1139 4 -1758 11 -1787
26 -113 109 -228 210 -288 110 -66 57 -63 1299 -63 1229 0 1183 -2 1292 57
121 66 209 199 228 343 6 46 10 760 10 1846 0 1562 2 1773 15 1784 13 11 15
63 15 360 0 297 -2 349 -15 360 -13 11 -15 77 -15 479 0 256 -5 500 -10 541
-26 203 -182 360 -385 390 -84 12 -2179 12 -2272 -1z m377 -227 c0 -55 25
-107 64 -137 27 -20 40 -20 699 -20 l672 0 31 22 c41 29 64 79 64 137 l0 46
188 0 c175 0 190 -2 238 -24 58 -27 120 -94 134 -145 6 -23 10 -881 10 -2433
l0 -2398 -42 -30 c-24 -16 -48 -34 -55 -40 -7 -5 -17 -10 -22 -10 -6 0 -15 -9
-21 -20 -6 -11 -18 -20 -28 -20 -15 0 -15 -2 -2 -10 12 -8 11 -10 -7 -10 -13
0 -24 -8 -28 -20 -3 -11 -11 -20 -16 -20 -5 0 -9 -7 -9 -15 0 -40 75 -2 115
59 10 15 20 24 23 21 3 -3 25 6 49 20 l43 26 0 -90 c0 -75 -3 -90 -17 -97 -10
-4 -21 -6 -25 -6 -5 1 -8 -4 -8 -12 0 -7 -20 -19 -45 -26 -25 -7 -45 -16 -45
-21 0 -5 -11 -11 -25 -15 -14 -3 -25 -10 -25 -15 0 -5 -13 -9 -30 -9 -21 0
-30 -5 -30 -16 0 -14 -3 -14 -15 -4 -13 11 -13 15 -3 22 10 7 10 9 -2 5 -8 -2
-15 -10 -16 -18 -3 -39 -4 -44 -12 -32 -5 8 -13 8 -32 -2 l-25 -14 29 -1 c16
0 26 -3 23 -6 -3 -4 -2 -16 4 -27 7 -13 7 -17 1 -13 -6 3 -14 -4 -18 -16 -4
-13 -14 -28 -22 -34 -8 -6 -14 -23 -14 -38 0 -22 -4 -27 -19 -23 -10 3 -20 -1
-23 -8 -5 -15 15 -65 26 -65 3 0 10 -15 14 -32 l7 -33 18 39 c9 22 15 45 12
51 -2 7 3 15 11 18 9 4 23 24 32 47 9 22 19 40 23 40 3 0 17 16 30 35 13 19
32 35 42 35 10 0 21 9 24 20 3 11 11 20 17 20 6 0 22 12 35 26 16 17 31 24 44
21 14 -4 18 -2 11 6 -6 8 0 20 19 35 l29 24 0 -159 c0 -151 -1 -162 -26 -211
-41 -83 -97 -120 -211 -138 -39 -6 -42 -5 -58 25 -12 24 -22 31 -38 29 -15 -2
-21 -9 -19 -20 2 -15 -5 -18 -48 -18 -30 0 -50 -4 -50 -11 0 -8 -5 -8 -15 1
-10 9 -15 9 -15 1 0 -6 -7 -11 -15 -11 -8 0 -15 5 -15 10 0 7 -6 7 -19 0 -29
-15 -201 -13 -202 3 0 9 -2 9 -6 -1 -6 -16 -1509 -17 -1519 -1 -4 7 3 9 16 7
14 -2 25 3 27 12 4 12 3 12 -5 1 -7 -9 -12 -10 -16 -2 -4 6 -16 11 -27 11 -10
0 -19 5 -19 11 0 5 -4 8 -9 5 -5 -4 -11 -1 -13 4 -2 6 -27 12 -56 13 -28 1
-52 6 -52 10 0 5 5 5 10 2 6 -3 10 -2 10 4 0 5 -4 12 -8 15 -13 8 -29 -26 -27
-57 2 -25 -1 -28 -22 -23 -15 4 -23 2 -23 -6 0 -9 -3 -9 -11 -1 -6 6 -18 9
-25 6 -8 -3 -14 0 -14 6 0 6 -6 8 -13 5 -20 -7 -93 62 -119 114 -23 47 -23 50
-25 449 -1 240 2 405 8 408 5 4 24 -5 42 -19 19 -15 39 -26 45 -26 6 0 12 -4
14 -9 2 -6 14 -11 28 -13 14 -2 50 -16 80 -30 60 -29 180 -60 180 -48 0 11
-97 80 -113 80 -7 0 -29 14 -49 30 -25 21 -42 28 -55 23 -16 -6 -16 -5 -4 10
17 21 11 29 -26 31 -38 3 -85 17 -100 29 -9 6 -13 5 -13 -3 0 -9 -6 -8 -18 4
-23 20 -30 120 -10 144 9 11 10 14 1 9 -10 -6 -12 467 -10 2200 l2 2208 22 40
c29 52 41 65 83 97 57 42 86 46 283 47 l187 1 0 -48z m945 -27 c0 -19 -8 -20
-194 -23 -114 -1 -199 2 -204 7 -5 5 -7 17 -4 26 6 13 31 15 204 13 190 -3
198 -4 198 -23z m830 -5465 c3 -5 1 -10 -4 -10 -6 0 -11 5 -11 10 0 6 2 10 4
10 3 0 8 -4 11 -10z m-15 -76 c0 -8 5 -14 11 -14 5 0 7 -5 3 -12 -6 -9 -9 -9
-12 0 -2 7 -9 9 -14 6 -7 -4 -8 -2 -4 4 4 7 3 12 -2 12 -6 0 -12 6 -15 14 -4
10 0 12 14 9 10 -3 19 -12 19 -19z m-1932 -182 c2 -7 -2 -10 -12 -6 -9 3 -16
11 -16 16 0 13 23 5 28 -10z"/>
<path d="M12290 5677 c0 -8 9 -40 20 -72 11 -32 20 -61 20 -64 0 -3 -20 24
-45 61 -34 52 -49 65 -64 61 -21 -5 -21 -4 49 -220 25 -77 26 -78 50 -64 14
10 13 18 -27 141 -3 8 16 -15 41 -52 26 -38 50 -68 54 -68 29 1 27 22 -15 153
-37 115 -47 137 -63 137 -11 0 -20 -6 -20 -13z"/>
<path d="M12043 5607 c-17 -7 -34 -15 -37 -18 -3 -3 15 -67 40 -143 44 -131
47 -137 70 -132 59 15 73 25 67 46 -5 17 -11 20 -33 15 -24 -5 -29 -2 -39 27
-10 28 -9 35 5 45 22 16 14 49 -13 46 -16 -2 -24 6 -32 28 -12 34 -7 49 14 49
18 0 26 15 19 34 -7 18 -17 19 -61 3z"/>
<path d="M11807 5522 c-23 -26 -22 -41 16 -155 36 -112 58 -138 99 -116 13 7
28 12 35 11 22 -5 22 16 1 79 -11 35 -22 65 -23 67 -2 2 -14 0 -29 -4 -29 -7
-34 -30 -12 -48 20 -15 33 -70 16 -64 -17 5 -72 166 -67 193 3 17 6 14 18 -12
14 -34 24 -39 48 -24 11 7 11 15 -5 47 -15 31 -25 40 -50 42 -20 2 -36 -3 -47
-16z"/>
<path d="M11469 5419 c-48 -17 -56 -23 -52 -40 4 -15 12 -20 28 -17 20 4 25
-6 61 -114 21 -65 41 -118 45 -118 4 0 14 3 22 6 14 5 14 10 1 46 -8 23 -25
77 -39 120 -24 79 -24 80 -4 85 13 4 18 11 15 20 -3 8 -6 19 -6 24 0 12 -5 11
-71 -12z"/>
<path d="M11293 5363 c-7 -2 -13 -21 -13 -41 l-1 -37 -22 28 c-13 15 -28 27
-34 27 -27 0 -22 -24 16 -75 40 -53 41 -56 41 -135 0 -79 1 -81 23 -78 19 3
22 9 22 46 l0 44 30 -35 c28 -32 55 -40 55 -15 0 5 -18 35 -40 65 -39 54 -40
59 -40 135 0 78 -4 85 -37 71z"/>
<path d="M11049 5281 l-47 -16 45 -140 c25 -77 46 -141 47 -142 2 -2 24 4 50
13 34 12 46 20 42 31 -3 8 -6 19 -6 24 0 5 -11 4 -26 -1 -33 -13 -31 -14 -38
14 -3 13 -8 31 -12 39 -3 9 2 16 15 20 28 7 17 47 -14 47 -17 0 -26 9 -34 31
-6 18 -11 33 -11 34 0 2 11 6 25 9 25 6 31 21 17 42 -5 8 -20 6 -53 -5z"/>
<path d="M12495 5243 c-118 -35 -169 -116 -131 -207 20 -49 64 -75 153 -91 98
-17 111 -22 119 -47 15 -47 -58 -78 -133 -57 -42 11 -47 11 -59 -6 -36 -49 -2
-95 75 -103 94 -9 189 40 216 111 21 57 7 117 -39 163 -31 31 -47 36 -186 61
-39 7 -45 12 -48 35 -4 34 23 50 103 57 l60 6 3 38 c3 32 0 38 -23 47 -34 13
-49 12 -110 -7z"/>
<path d="M10861 5221 c-11 -7 -10 -19 8 -72 11 -34 19 -64 17 -66 -2 -2 -21
23 -42 57 -38 58 -56 71 -69 50 -4 -6 12 -71 36 -145 34 -109 46 -135 61 -135
23 0 23 22 -1 93 -11 32 -18 57 -17 57 2 0 22 -29 45 -64 34 -51 46 -63 62
-59 11 3 18 11 16 17 -2 6 -23 71 -46 144 -23 72 -45 132 -49 132 -4 0 -13 -4
-21 -9z"/>
<path d="M12168 5129 c-25 -14 -23 -42 12 -144 17 -49 30 -93 30 -99 0 -5 -44
34 -99 87 -61 60 -106 97 -119 97 -28 0 -70 -20 -76 -35 -2 -7 28 -111 67
-231 69 -210 73 -219 99 -222 37 -4 68 14 68 41 0 13 -15 69 -34 125 l-35 102
110 -101 c98 -89 114 -100 137 -94 15 3 35 14 44 23 16 16 13 29 -55 237 -72
219 -72 220 -102 222 -16 2 -38 -2 -47 -8z"/>
<path d="M11681 4976 c-69 -23 -129 -49 -134 -57 -7 -11 11 -78 59 -225 37
-115 72 -215 77 -221 5 -7 19 -13 31 -13 37 0 264 80 270 96 7 18 -10 63 -26
69 -8 3 -53 -8 -103 -25 -49 -16 -90 -30 -91 -30 -7 0 -35 102 -29 108 3 4 27
14 53 23 37 12 48 21 50 40 4 46 -11 55 -65 40 -74 -20 -74 -20 -94 36 l-17
52 95 32 c53 17 97 38 100 47 8 19 -18 66 -37 69 -8 1 -71 -17 -139 -41z"/>
<path d="M11320 4856 c-143 -48 -150 -51 -150 -74 0 -9 31 -111 69 -227 65
-196 71 -210 95 -213 20 -3 177 42 259 73 21 9 23 52 1 76 -14 16 -20 16 -97
-8 -45 -14 -88 -26 -96 -27 -8 -1 -21 20 -31 49 l-17 50 56 20 c46 17 57 24
59 46 5 45 -20 55 -84 35 -31 -10 -57 -16 -58 -14 -3 3 -36 99 -36 103 0 1 41
14 91 30 53 17 94 36 100 46 11 21 -3 64 -23 71 -7 3 -69 -14 -138 -36z"/>
<path d="M10923 4729 c-149 -48 -153 -50 -153 -77 0 -16 6 -37 14 -47 13 -19
16 -19 67 -3 29 10 54 16 56 14 1 -1 29 -83 61 -182 l58 -179 35 -3 c24 -2 40
3 52 16 16 17 13 28 -43 202 -32 102 -58 185 -57 186 1 1 22 7 46 15 57 18 71
40 51 76 -8 14 -19 27 -25 29 -5 1 -79 -20 -162 -47z"/>
<path d="M11835 4198 c-16 -6 -35 -15 -42 -20 -7 -6 -43 -7 -85 -3 -92 8 -186
-15 -320 -79 -82 -39 -206 -124 -216 -149 -2 -4 -50 -54 -105 -110 -56 -56
-112 -122 -125 -147 l-23 -45 22 30 c38 49 142 155 147 150 3 -2 0 -11 -6 -18
-20 -24 -92 -207 -109 -275 -28 -118 -22 -269 21 -477 21 -99 39 -182 41 -183
2 -2 7 13 10 34 4 22 22 116 40 209 18 94 36 190 40 214 10 63 28 100 76 161
67 85 127 139 191 171 60 30 186 74 201 71 5 -2 6 2 2 8 -3 5 0 10 8 10 26 0
58 67 55 113 -3 47 21 157 34 157 4 0 8 -11 8 -24 0 -14 5 -28 10 -31 6 -4 8
-10 6 -14 -3 -4 -8 -22 -11 -40 -4 -22 -1 -33 9 -37 10 -4 12 -13 6 -34 -12
-43 9 -64 116 -115 51 -25 97 -45 101 -45 33 -1 301 -229 359 -306 33 -43 81
-160 100 -244 8 -36 20 -83 26 -105 l10 -40 23 76 c40 134 71 179 120 179 31
0 33 2 37 40 2 22 0 88 -4 147 -10 123 -63 300 -125 412 l-36 64 30 -21 c16
-12 47 -43 68 -69 50 -63 63 -75 40 -38 -56 92 -178 204 -336 306 -95 63 -133
79 -247 109 -88 22 -122 24 -167 8z"/>
<path d="M12670 3606 c0 -2 7 -6 15 -10 8 -3 15 -1 15 4 0 6 -7 10 -15 10 -8
0 -15 -2 -15 -4z"/>
<path d="M10800 3438 c0 -8 9 -14 21 -15 12 -1 19 3 16 10 -5 17 -37 21 -37 5z"/>
<path d="M10795 3120 c-3 -5 3 -10 14 -10 12 0 21 5 21 10 0 6 -6 10 -14 10
-8 0 -18 -4 -21 -10z"/>
<path d="M12080 3119 c-85 -15 -173 -42 -192 -59 -10 -8 -18 -28 -18 -44 0
-27 2 -28 35 -23 43 7 44 0 5 -36 -17 -16 -27 -34 -23 -42 6 -17 19 -19 28 -5
3 6 11 10 16 10 5 0 2 -11 -7 -25 -26 -39 -11 -39 39 -1 l46 35 7 -34 c6 -34
34 -58 34 -30 0 8 -4 15 -10 15 -5 0 -10 10 -10 22 l0 22 16 -22 c11 -17 21
-21 40 -16 19 5 23 3 18 -9 -3 -8 0 -18 6 -22 8 -5 10 6 5 41 -7 46 -6 48 9
29 8 -11 16 -15 16 -7 0 15 26 16 35 1 4 -5 -1 -19 -11 -30 -19 -21 -16 -22
35 -19 38 2 84 27 75 41 -3 5 2 9 10 9 13 0 14 3 4 19 -16 26 -83 61 -108 56
-11 -2 -20 0 -20 5 0 4 -10 6 -22 2 -16 -4 -19 -2 -13 9 7 12 6 12 -7 1 -17
-13 -52 -6 -42 9 3 5 14 9 25 9 11 0 41 10 67 21 39 18 57 20 114 15 37 -3 68
-2 68 2 0 5 -12 19 -26 33 -22 21 -36 24 -107 26 -45 1 -107 -3 -137 -8z m0
-179 c0 -5 -7 -10 -15 -10 -8 0 -15 5 -15 10 0 6 7 10 15 10 8 0 15 -4 15 -10z"/>
<path d="M11194 3111 c-33 -8 -83 -41 -84 -54 0 -4 24 -7 53 -6 45 2 132 -11
190 -27 30 -9 9 -22 -46 -29 -99 -14 -159 -51 -119 -74 16 -10 15 -10 -2 -11
-15 0 -12 -6 15 -29 32 -28 68 -41 113 -41 19 1 19 2 -6 21 -32 24 -36 44 -10
57 25 13 42 4 42 -23 0 -22 18 -36 52 -40 21 -2 58 30 58 50 0 19 14 19 30 0
7 -8 19 -15 26 -15 8 0 11 -6 8 -15 -4 -10 0 -15 15 -15 23 0 26 11 11 41 -11
20 3 28 15 9 9 -14 35 -12 35 3 0 6 -9 23 -20 37 -23 30 -25 40 -6 40 20 0 26
24 12 51 -14 30 -59 45 -187 64 -106 16 -146 17 -195 6z m211 -171 c3 -5 -1
-10 -10 -10 -9 0 -13 5 -10 10 3 6 8 10 10 10 2 0 7 -4 10 -10z m6 -49 c15 8
17 6 12 -6 -8 -23 -67 -16 -71 9 -4 17 -2 17 19 3 16 -12 27 -13 40 -6z"/>
<path d="M12830 2993 c1 -34 2 -36 14 -20 8 10 12 27 9 37 -9 33 -23 22 -23
-17z"/>
<path d="M10668 2870 c-4 -14 -10 -54 -13 -90 -3 -36 -11 -82 -17 -103 -10
-33 -9 -43 10 -76 27 -47 29 -109 6 -118 -10 -4 -22 1 -30 12 -12 16 -14 16
-20 2 -7 -20 3 -37 22 -37 8 0 14 -7 14 -15 0 -19 42 -43 48 -26 7 21 32 40
47 35 21 -9 56 -88 64 -147 6 -45 8 -38 12 58 4 98 2 115 -17 155 -21 45 -35
87 -49 145 l-8 30 -23 -50 -23 -50 3 110 c3 114 -13 217 -26 165z"/>
<path d="M11468 2863 c6 -2 18 -2 25 0 6 3 1 5 -13 5 -14 0 -19 -2 -12 -5z"/>
<path d="M11345 2841 c-3 -5 -1 -12 5 -16 5 -3 10 1 10 9 0 18 -6 21 -15 7z"/>
<path d="M11385 2830 c-3 -5 -2 -10 4 -10 5 0 13 5 16 10 3 6 2 10 -4 10 -5 0
-13 -4 -16 -10z"/>
<path d="M12815 2818 c-2 -7 -12 -33 -21 -58 -37 -104 -48 -150 -36 -162 8 -8
12 -1 17 26 12 62 25 39 26 -46 0 -46 7 -105 14 -133 l13 -50 -2 60 c-2 57 6
94 28 123 15 21 77 -106 64 -131 -5 -10 -7 -21 -4 -25 3 -3 6 0 6 7 0 8 7 10
20 6 11 -3 20 -5 20 -3 0 2 -9 21 -20 43 -12 23 -20 59 -20 88 0 36 -6 57 -25
81 -26 35 -32 65 -15 82 12 12 3 47 -10 39 -4 -3 -13 9 -20 25 -15 36 -28 47
-35 28z"/>
<path d="M11361 2789 c-67 -13 -64 -22 6 -16 67 5 124 27 68 26 -16 -1 -50 -5
-74 -10z"/>
<path d="M12063 2793 c9 -2 25 -2 35 0 9 3 1 5 -18 5 -19 0 -27 -2 -17 -5z"/>
<path d="M12425 2503 c-4 -43 -15 -108 -24 -145 -10 -37 -13 -64 -8 -61 6 3 8
-9 5 -30 -5 -46 8 -38 22 13 6 22 14 40 19 40 11 0 23 -189 15 -248 -7 -53 18
-173 57 -277 22 -59 94 -159 109 -150 5 3 12 0 16 -6 4 -8 3 -9 -4 -5 -7 4
-12 3 -12 -2 0 -11 25 -23 33 -16 2 2 2 16 -1 29 -3 20 -9 24 -28 19 -27 -7
-33 10 -8 20 13 5 14 9 4 21 -7 8 -19 15 -26 15 -18 0 -69 90 -95 169 -18 52
-22 90 -23 200 -1 75 0 154 1 176 2 22 1 65 -2 95 -7 96 29 125 103 80 l32
-20 0 26 c0 14 -5 34 -10 45 -10 17 -7 19 29 19 32 0 39 3 35 15 -4 10 -14 13
-30 9 -14 -4 -31 -1 -40 6 -11 10 -18 10 -26 2 -17 -17 -48 -15 -48 3 0 18
-12 19 -27 4 -8 -8 -16 -6 -29 10 -10 11 -21 21 -25 21 -4 0 -10 -35 -14 -77z"/>
<path d="M12711 2557 c-1 -29 18 -34 27 -7 3 7 0 10 -6 6 -6 -3 -13 2 -15 11
-3 11 -5 7 -6 -10z"/>
<path d="M11970 2542 c0 -11 11 -24 25 -30 13 -6 41 -34 61 -62 20 -27 40 -50
45 -50 4 0 13 -9 19 -21 15 -27 -3 -49 -42 -49 -16 0 -43 -8 -61 -17 -41 -22
-113 -42 -154 -43 -20 0 -33 -5 -33 -12 0 -10 -2 -10 -8 -1 -5 8 -13 9 -22 3
-19 -13 -73 -13 -65 -1 3 5 0 13 -7 18 -18 10 -58 12 -52 1 3 -4 -3 -8 -13 -9
-10 0 -26 -2 -35 -4 -10 -2 -18 0 -18 3 0 4 -21 8 -47 10 -26 2 -52 7 -58 11
-5 5 -27 11 -48 14 -73 11 -84 41 -37 97 17 19 30 41 30 50 0 9 5 21 12 28 6
6 9 14 6 17 -3 3 -38 -16 -79 -43 -41 -26 -93 -59 -116 -71 -71 -40 -65 -91
12 -91 23 0 45 -3 48 -7 4 -3 21 -8 39 -10 18 -2 61 -25 101 -54 66 -48 99
-62 57 -24 -11 10 -20 26 -20 35 0 15 5 17 37 9 21 -4 72 -11 113 -15 41 -3
77 -7 80 -7 18 -3 139 24 180 40 8 4 27 7 43 7 23 1 27 -3 27 -26 0 -28 13
-37 25 -18 11 17 97 73 119 76 131 21 141 53 41 129 -36 28 -91 69 -122 93
-60 46 -83 52 -83 24z m-283 -298 c-3 -3 -12 -4 -19 -1 -8 3 -5 6 6 6 11 1 17
-2 13 -5z"/>
<path d="M11040 2456 c0 -18 -21 -21 -37 -5 -8 8 -20 5 -43 -12 -23 -18 -28
-25 -16 -27 12 -3 14 -10 10 -28 -6 -23 -5 -24 21 -14 77 29 111 -3 104 -100
-1 -23 28 -213 37 -239 2 -8 -1 -11 -10 -8 -11 4 -12 -2 -5 -31 9 -42 4 -95
-16 -167 -8 -27 -17 -62 -20 -77 -3 -14 -17 -40 -31 -58 -15 -17 -24 -33 -21
-36 11 -12 57 61 87 138 51 133 56 167 37 240 -22 85 -28 163 -19 222 6 40 2
65 -19 130 -17 52 -32 82 -43 84 -9 2 -16 -3 -16 -12z"/>
<path d="M11823 2420 c-25 -27 -32 -29 -60 -21 -25 7 -35 6 -40 -4 -6 -11 -17
-7 -51 16 -43 29 -85 37 -111 20 -22 -14 17 -30 58 -23 24 3 32 1 27 -7 -15
-24 5 -49 49 -61 53 -15 95 -8 136 21 24 17 27 24 18 35 -12 15 -9 17 44 28
38 9 34 26 -7 26 -26 0 -42 -8 -63 -30z"/>
<path d="M10648 2303 c-5 -20 20 -78 29 -69 3 3 0 12 -6 20 -7 8 -10 24 -6 35
3 10 1 22 -4 25 -5 4 -11 -2 -13 -11z"/>
<path d="M12605 2300 c-3 -5 -2 -10 4 -10 5 0 13 5 16 10 3 6 2 10 -4 10 -5 0
-13 -4 -16 -10z"/>
<path d="M12911 2294 c0 -11 3 -14 6 -6 3 7 2 16 -1 19 -3 4 -6 -2 -5 -13z"/>
<path d="M10703 2264 c-12 -26 -12 -26 7 -9 20 18 26 35 13 35 -5 0 -13 -12
-20 -26z"/>
<path d="M11197 2169 c10 -17 44 -62 76 -100 50 -61 57 -74 57 -112 0 -33 6
-51 25 -71 13 -14 28 -26 34 -26 5 0 13 -9 16 -20 3 -11 15 -20 26 -20 10 0
19 -5 19 -11 0 -7 12 -22 28 -35 15 -13 24 -24 20 -24 -4 0 13 -21 37 -47 24
-25 47 -59 50 -74 4 -15 15 -29 26 -32 11 -3 23 -15 26 -26 3 -11 14 -21 25
-23 12 -2 26 -12 32 -23 16 -28 28 -36 50 -31 11 3 28 0 39 -6 14 -7 17 -7 13
1 -4 6 -1 11 8 11 8 0 20 8 26 18 11 16 11 16 6 0 -7 -22 -10 -23 46 6 41 21
118 89 118 104 0 2 10 13 22 23 11 11 18 19 13 19 -4 0 -2 7 5 15 10 12 16 13
27 3 12 -10 14 -9 11 3 -1 7 1 15 5 16 4 2 20 14 34 28 18 16 31 21 37 15 13
-13 26 -13 26 1 0 5 -4 7 -10 4 -5 -3 -10 -1 -10 4 0 6 9 11 19 11 11 0 23 5
26 10 12 19 22 10 34 -30 7 -23 18 -40 26 -40 13 0 17 -12 14 -36 0 -4 3 -10
8 -13 10 -7 33 -72 33 -93 0 -8 -21 -25 -49 -38 -31 -15 -47 -29 -46 -39 1 -9
0 -10 -2 -3 -3 9 -12 11 -26 7 -117 -37 -238 -56 -324 -53 -50 3 -98 1 -106
-3 -16 -10 -283 -12 -337 -4 -110 17 -198 54 -196 82 1 18 29 99 48 139 5 11
8 27 6 35 -2 8 3 13 12 11 8 -2 12 -1 8 3 -3 4 0 21 8 40 7 18 11 43 9 56 -3
13 0 26 6 29 5 4 7 14 3 23 -3 9 -11 14 -16 11 -6 -4 -5 -10 3 -15 11 -7 10
-9 -3 -9 -10 0 -19 -12 -23 -32 -10 -46 -71 -157 -108 -195 -39 -42 -59 -48
-95 -29 -27 14 -33 14 -65 -3 -20 -10 -33 -22 -29 -26 4 -5 -1 -5 -12 -1 -15
5 -17 2 -13 -13 3 -14 1 -18 -9 -14 -10 4 -12 0 -8 -11 3 -9 1 -16 -5 -16 -6
0 -11 8 -12 18 0 9 -12 -7 -26 -37 -15 -30 -37 -65 -50 -79 -27 -29 -29 -25
71 -135 40 -44 78 -77 89 -77 11 0 17 -5 14 -12 -2 -7 -10 -12 -16 -11 -14 4
-15 -14 -1 -22 6 -4 8 -15 5 -26 -9 -28 3 -43 22 -27 12 10 17 9 28 -5 11 -16
13 -16 19 -2 3 9 0 18 -8 21 -21 8 -7 52 18 57 19 4 18 4 -4 6 -21 1 -22 3
-10 12 11 8 12 12 3 16 -7 2 -13 16 -13 29 0 14 -4 23 -8 20 -4 -2 -8 4 -8 14
0 10 4 17 8 14 4 -2 15 4 25 15 16 17 21 18 48 6 l30 -13 -30 -1 c-41 -2 -57
-13 -39 -28 10 -10 15 -10 22 4 6 10 17 14 30 11 12 -3 21 -3 20 1 0 3 1 9 2
14 3 8 7 23 9 33 0 4 13 -1 27 -11 14 -9 28 -14 32 -11 3 3 -1 6 -9 6 -11 1
-11 2 2 10 9 5 31 5 55 0 53 -13 58 -12 44 5 -14 17 6 51 30 49 35 -3 40 -5
40 -15 0 -5 -4 -7 -10 -4 -5 3 -10 1 -10 -5 0 -6 -11 -8 -27 -5 -23 4 -25 4
-8 -4 11 -5 16 -10 10 -10 -5 -1 -4 -5 4 -10 9 -6 19 -4 28 5 8 8 18 12 23 9
4 -3 13 2 20 10 7 8 17 15 23 15 6 0 3 -6 -8 -13 -12 -9 -14 -16 -7 -21 21
-13 1 -36 -27 -30 l-26 5 25 -15 c14 -8 29 -12 34 -8 6 3 30 5 54 3 25 -1 41
2 38 7 -8 14 15 20 44 11 22 -6 23 -7 4 -8 -12 -1 -27 -7 -33 -15 -9 -11 -6
-13 14 -13 14 0 25 4 25 9 0 5 5 6 10 3 6 -3 10 1 10 9 0 9 4 16 10 16 5 0 7
-6 4 -14 -3 -7 6 -21 21 -30 14 -9 24 -13 23 -9 -5 14 6 15 56 8 32 -5 56 -4
68 4 10 6 23 11 30 11 9 0 8 -3 -2 -10 -22 -14 23 -12 83 4 28 7 69 10 97 6
37 -5 47 -3 43 7 -5 13 17 17 82 14 23 -2 27 0 15 8 -12 8 -8 11 17 11 37 0
94 20 75 27 -6 3 -10 8 -7 13 3 4 -7 10 -21 13 -18 3 -29 -1 -37 -14 -7 -11
-19 -19 -29 -19 -9 0 -19 -6 -21 -12 -3 -7 -6 -8 -6 -2 -2 18 39 55 52 47 7
-4 6 0 -2 10 -12 15 -11 17 2 17 9 0 18 -4 22 -10 3 -5 13 -6 21 -3 9 3 19 0
24 -6 5 -9 11 -8 24 4 9 9 24 15 34 12 12 -3 9 -7 -15 -17 -34 -12 -41 -24
-23 -35 6 -3 10 -2 10 4 0 6 6 8 14 5 8 -3 17 -1 21 5 9 16 25 14 25 -3 0 -11
8 -12 42 -5 23 6 48 7 55 5 8 -3 25 7 39 22 l24 27 -10 -27 c-9 -26 -8 -27 10
-16 15 9 24 9 44 -1 21 -12 23 -17 15 -33 -8 -15 -18 -19 -39 -16 -38 6 -29
-8 10 -15 18 -4 30 -13 30 -22 0 -12 6 -15 20 -10 14 5 20 2 20 -9 0 -10 -9
-16 -22 -16 -17 0 -19 -3 -9 -9 7 -5 9 -11 5 -13 -12 -6 11 0 33 9 14 6 14 3
-3 -20 -10 -14 -24 -27 -30 -27 -7 0 -14 -20 -16 -45 -2 -36 0 -46 14 -51 22
-7 22 -16 2 -55 -11 -22 -21 -30 -34 -26 -13 3 -17 1 -13 -10 3 -8 0 -19 -8
-24 -10 -6 -3 -8 21 -8 19 1 27 3 18 6 -24 6 -22 15 6 35 23 16 24 16 31 0 3
-9 1 -18 -4 -20 -21 -7 -12 -30 9 -25 11 3 18 8 16 12 -8 13 14 143 30 176 9
19 25 37 35 40 29 10 71 97 45 94 -9 -1 -26 21 -26 34 0 5 5 5 12 1 14 -9 4
64 -11 79 -6 6 -8 2 -5 -14 4 -22 3 -22 -5 -4 -14 29 -13 33 9 40 11 3 20 11
20 16 0 6 -4 8 -9 5 -7 -5 -13 6 -25 44 -1 3 -6 12 -11 20 -6 8 -15 26 -22 40
-8 18 -12 20 -12 8 -2 -29 -16 -21 -29 16 -9 25 -21 36 -41 41 -15 3 -43 21
-61 40 -38 39 -52 42 -105 19 -43 -17 -40 -19 -79 56 -31 59 -83 223 -92 288
-6 50 -5 52 45 119 51 68 66 98 33 66 -9 -10 -28 -27 -42 -38 -49 -39 -150
-156 -200 -230 -130 -192 -310 -266 -447 -183 -71 43 -130 106 -178 193 -56
102 -170 245 -195 245 -6 0 -10 4 -10 8 0 5 -12 14 -26 20 l-25 12 18 -31z
m568 -649 c3 -5 -1 -10 -10 -10 -9 0 -13 5 -10 10 3 6 8 10 10 10 2 0 7 -4 10
-10z m435 -85 c0 -8 -2 -15 -4 -15 -2 0 -6 7 -10 15 -3 8 -1 15 4 15 6 0 10
-7 10 -15z m-825 -15 c-3 -5 -13 -10 -21 -10 -8 0 -12 5 -9 10 3 6 13 10 21
10 8 0 12 -4 9 -10z m915 0 c0 -5 -5 -10 -11 -10 -5 0 -7 5 -4 10 3 6 8 10 11
10 2 0 4 -4 4 -10z m-974 -37 c-15 -8 -31 -12 -34 -8 -3 3 4 8 16 12 12 3 22
10 22 15 0 5 5 6 11 2 8 -4 2 -12 -15 -21z m199 16 c16 0 17 -2 5 -9 -8 -5
-18 -6 -24 -3 -5 3 -16 -3 -24 -13 -11 -14 -13 -15 -9 -3 3 9 0 22 -6 29 -10
10 -7 11 13 5 14 -3 34 -7 45 -6z m75 -3 c0 -2 -7 -7 -16 -10 -8 -3 -12 -2 -9
4 6 10 25 14 25 6z m-295 -66 c3 -5 2 -10 -4 -10 -5 0 -13 5 -16 10 -3 6 -2
10 4 10 5 0 13 -4 16 -10z m232 -23 c-15 -5 -25 -13 -21 -18 3 -5 -2 -9 -10
-9 -17 0 -20 9 -10 35 5 13 8 14 15 3 7 -10 9 -9 9 5 0 15 3 16 22 6 l23 -12
-28 -10z m173 -17 c0 -5 -4 -10 -9 -10 -6 0 -13 5 -16 10 -3 6 1 10 9 10 9 0
16 -4 16 -10z m240 0 c0 -5 -2 -10 -4 -10 -3 0 -8 5 -11 10 -3 6 -1 10 4 10 6
0 11 -4 11 -10z m109 7 c-10 -9 -59 -17 -59 -9 0 4 14 9 32 10 18 2 30 1 27
-1z m536 -7 c-3 -5 -1 -10 4 -10 6 0 11 -4 11 -8 0 -5 -7 -9 -15 -9 -8 0 -15
6 -15 13 0 8 -6 11 -17 7 -11 -4 -14 -3 -9 5 4 7 16 12 27 12 11 0 17 -4 14
-10z m-1521 -136 c7 -19 -11 -57 -25 -49 -5 4 -5 13 0 23 4 9 6 23 4 30 -7 18
14 15 21 -4z m1524 -29 c-3 -3 -9 2 -12 12 -6 14 -5 15 5 6 7 -7 10 -15 7 -18z"/>
<path d="M12810 2190 c0 -5 7 -7 15 -4 8 4 15 8 15 10 0 2 -7 4 -15 4 -8 0
-15 -4 -15 -10z"/>
<path d="M10810 2141 c0 -5 5 -13 10 -16 6 -3 10 -2 10 4 0 5 -4 13 -10 16 -5
3 -10 2 -10 -4z"/>
<path d="M11628 2123 c7 -3 16 -2 19 1 4 3 -2 6 -13 5 -11 0 -14 -3 -6 -6z"/>
<path d="M11836 2121 c-4 -5 3 -7 14 -4 23 6 26 13 6 13 -8 0 -17 -4 -20 -9z"/>
<path d="M11708 2103 c12 -2 30 -2 40 0 9 3 -1 5 -23 4 -22 0 -30 -2 -17 -4z"/>
<path d="M11648 1978 c12 -6 22 -15 22 -20 0 -4 -10 -8 -22 -8 -47 -1 9 -20
69 -24 62 -4 108 7 98 24 -3 5 -1 10 4 10 6 0 11 4 11 10 0 5 -26 8 -57 7 -32
-1 -78 1 -103 6 -37 6 -41 5 -22 -5z"/>
<path d="M10640 1841 c0 -6 4 -13 10 -16 6 -3 7 1 4 9 -7 18 -14 21 -14 7z"/>
<path d="M10801 1719 c9 -17 13 -19 19 -8 11 16 4 29 -16 29 -12 0 -13 -4 -3
-21z"/>
<path d="M10771 1694 c13 -16 29 -19 29 -5 0 5 -9 11 -21 14 -16 4 -18 3 -8
-9z"/>
<path d="M10886 1667 c3 -10 9 -15 12 -12 3 3 0 11 -7 18 -10 9 -11 8 -5 -6z"/>
<path d="M12666 1663 c-6 -14 -5 -15 5 -6 7 7 10 15 7 18 -3 3 -9 -2 -12 -12z"/>
<path d="M10637 1651 c-4 -17 -3 -21 5 -13 5 5 8 16 6 23 -3 8 -7 3 -11 -10z"/>
<path d="M10930 1643 c1 -21 24 -55 32 -47 6 5 -20 64 -28 64 -2 0 -4 -8 -4
-17z"/>
<path d="M10960 1656 c0 -2 7 -7 16 -10 8 -3 12 -2 9 4 -6 10 -25 14 -25 6z"/>
<path d="M10997 1633 c-10 -10 -8 -53 2 -53 5 0 12 7 15 16 9 24 7 31 -5 14
-9 -12 -10 -11 -6 8 5 23 4 26 -6 15z"/>
<path d="M12903 1624 c-7 -7 -13 -19 -13 -26 0 -9 3 -9 10 2 8 13 10 13 10 1
0 -11 3 -12 11 -4 7 7 8 17 3 26 -8 13 -11 13 -21 1z"/>
<path d="M12980 1631 c0 -17 18 -21 24 -6 3 9 0 15 -9 15 -8 0 -15 -4 -15 -9z"/>
<path d="M10907 1623 c-3 -5 1 -14 9 -21 12 -10 14 -10 14 2 0 17 -16 30 -23
19z"/>
<path d="M12835 1610 c3 -5 8 -10 11 -10 2 0 4 5 4 10 0 6 -5 10 -11 10 -5 0
-7 -4 -4 -10z"/>
<path d="M10820 1590 c0 -5 5 -10 10 -10 6 0 10 5 10 10 0 6 -4 10 -10 10 -5
0 -10 -4 -10 -10z"/>
<path d="M13058 1563 c7 -3 16 -2 19 1 4 3 -2 6 -13 5 -11 0 -14 -3 -6 -6z"/>
<path d="M12690 1480 c0 -13 18 -22 24 -11 3 5 -1 11 -9 15 -8 3 -15 1 -15 -4z"/>
<path d="M10810 1471 c0 -6 4 -13 10 -16 6 -3 7 1 4 9 -7 18 -14 21 -14 7z"/>
<path d="M12995 1420 c-3 -5 -2 -10 4 -10 5 0 13 5 16 10 3 6 2 10 -4 10 -5 0
-13 -4 -16 -10z"/>
<path d="M12726 1341 c-3 -5 1 -11 9 -15 15 -6 29 7 18 18 -9 9 -21 8 -27 -3z"/>
<path d="M12730 1303 c5 -2 8 -9 4 -14 -3 -5 0 -9 6 -9 15 0 7 23 -8 26 -7 1
-8 0 -2 -3z"/>
<path d="M11293 1285 c0 -7 6 -12 14 -11 19 3 21 19 2 21 -9 2 -16 -3 -16 -10z"/>
<path d="M11690 1229 c0 -5 5 -7 10 -4 6 3 10 8 10 11 0 2 -4 4 -10 4 -5 0
-10 -5 -10 -11z"/>
<path d="M11988 1233 c7 -3 16 -2 19 1 4 3 -2 6 -13 5 -11 0 -14 -3 -6 -6z"/>
<path d="M11720 1218 c0 -4 4 -8 9 -8 6 0 12 4 15 8 3 5 -1 9 -9 9 -8 0 -15
-4 -15 -9z"/>
<path d="M11780 1220 c0 -5 5 -10 11 -10 5 0 7 5 4 10 -3 6 -8 10 -11 10 -2 0
-4 -4 -4 -10z"/>
<path d="M10523 1168 c8 -13 23 -23 33 -23 11 0 35 -16 56 -36 20 -19 43 -34
53 -33 13 2 14 0 4 -12 -6 -8 -8 -18 -4 -22 4 -4 10 -1 12 6 6 15 49 16 59 0
5 -7 2 -9 -8 -5 -9 3 -19 3 -23 -1 -3 -4 18 -11 47 -17 48 -9 54 -8 64 10 5
11 17 19 26 19 9 -1 14 4 12 10 -6 16 61 12 81 -4 13 -11 19 -10 35 8 23 24
25 38 8 48 -7 5 -8 3 -3 -6 5 -9 4 -11 -3 -6 -8 5 -9 13 -3 24 7 14 4 17 -21
19 -17 1 -36 7 -42 12 -9 7 -17 7 -26 -2 -10 -10 -11 -9 -5 1 6 12 3 12 -15 2
-13 -7 -48 -14 -79 -16 -31 -2 -62 -6 -68 -9 -7 -2 -13 0 -13 5 0 5 -12 9 -27
9 -53 2 -63 4 -63 17 0 6 -13 14 -29 16 -17 2 -28 1 -25 -4 3 -4 1 -8 -5 -8
-5 0 -13 5 -16 10 -3 6 -11 10 -17 10 -6 0 -4 -9 5 -22z m437 -99 c0 -6 -4 -7
-10 -4 -5 3 -10 11 -10 16 0 6 5 7 10 4 6 -3 10 -11 10 -16z m-157 -24 c-5
-16 -16 -19 -26 -9 -7 8 16 33 25 28 4 -3 5 -11 1 -19z"/>
<path d="M12846 1182 c-3 -4 4 -9 15 -9 23 -2 25 3 4 10 -8 4 -16 3 -19 -1z"/>
<path d="M11090 1142 c0 -5 7 -9 15 -9 8 0 15 4 15 9 0 4 -7 8 -15 8 -8 0 -15
-4 -15 -8z"/>
<path d="M12480 1131 c0 -5 9 -7 20 -4 11 3 20 7 20 9 0 2 -9 4 -20 4 -11 0
-20 -4 -20 -9z"/>
<path d="M11130 1110 c0 -5 5 -10 11 -10 5 0 7 5 4 10 -3 6 -8 10 -11 10 -2 0
-4 -4 -4 -10z"/>
<path d="M12773 1103 c-31 -21 -29 -35 2 -21 14 6 25 17 25 25 0 16 1 16 -27
-4z"/>
<path d="M12643 1095 c-3 -9 -3 -18 -1 -21 3 -3 8 4 11 16 6 23 -1 27 -10 5z"/>
<path d="M12521 1082 c-8 -15 -7 -23 4 -32 8 -7 15 -22 15 -33 0 -26 5 -20 14
16 5 23 3 27 -15 27 -18 0 -19 2 -9 15 7 9 10 18 7 21 -3 3 -10 -3 -16 -14z"/>
<path d="M12726 1075 c-3 -9 -6 -24 -6 -33 1 -15 3 -14 15 2 10 13 15 15 15 6
0 -7 3 -11 6 -7 3 3 -1 15 -9 27 -13 18 -15 19 -21 5z"/>
<path d="M11004 1072 c-16 -2 -20 -8 -16 -28 2 -14 0 -24 -7 -24 -6 0 -11 -11
-11 -25 0 -14 -7 -28 -15 -31 -8 -4 -15 -13 -15 -21 0 -19 -43 -60 -58 -55 -6
2 -12 -7 -14 -20 -2 -13 -6 -21 -9 -18 -3 3 -13 -1 -22 -9 -10 -7 -17 -10 -17
-6 0 4 -11 -4 -25 -19 -30 -32 -35 -33 -35 -1 0 14 -5 25 -11 25 -7 0 -9 -9
-6 -22 4 -13 0 -26 -9 -33 -10 -7 -13 -17 -8 -30 8 -19 9 -18 15 5 l7 25 1
-25 c1 -18 4 -21 10 -12 7 11 9 10 14 -3 4 -9 3 -14 -2 -11 -5 3 -14 0 -20 -8
-7 -8 -24 -12 -42 -10 -27 3 -30 2 -19 -11 7 -8 21 -15 31 -15 11 0 18 -3 18
-7 -1 -5 -1 -17 0 -28 2 -19 2 -19 14 3 7 12 16 19 20 16 4 -4 7 0 7 8 0 9 7
18 14 21 11 4 13 1 9 -10 -5 -13 -2 -15 12 -9 18 7 18 6 0 -14 -10 -11 -15
-20 -11 -20 4 0 -3 -14 -15 -32 -13 -17 -17 -28 -10 -24 10 7 11 4 2 -13 -14
-25 -12 -26 64 -36 28 -4 61 -9 75 -11 103 -19 123 -8 47 27 -82 37 -109 58
-95 73 26 25 50 26 99 5 27 -12 58 -19 68 -16 11 3 22 0 25 -7 3 -7 5 -7 5 1
1 7 -8 18 -19 25 -11 7 -20 16 -20 20 0 8 27 4 36 -5 11 -11 52 -8 59 3 6 9
-8 14 -27 11 -5 0 -8 5 -8 11 0 9 -4 8 -10 -2 -6 -9 -13 -11 -17 -5 -5 6 -17
12 -28 13 -11 2 -22 6 -25 9 -3 3 5 4 16 1 32 -8 49 5 31 24 -13 12 -11 16 15
27 31 14 31 23 -2 25 -11 0 -20 4 -20 9 0 4 0 12 0 17 0 6 7 10 15 10 12 0 12
3 -2 18 -10 11 -21 17 -25 15 -4 -2 -9 1 -13 7 -3 5 3 10 14 10 12 0 21 5 21
11 0 6 -8 8 -17 5 -10 -3 -24 -2 -32 3 -19 12 4 24 34 17 13 -3 26 -2 29 3 3
5 -4 11 -15 14 -12 3 -18 10 -14 16 3 6 -2 11 -12 11 -19 0 -43 18 -43 32 0 4
10 8 23 8 20 1 21 2 5 14 -19 14 -25 32 -8 21 6 -3 10 -1 10 5 0 6 4 9 9 6 5
-3 7 -19 5 -36 -2 -16 1 -30 7 -30 6 0 8 4 4 9 -3 6 3 14 12 20 10 6 13 11 7
11 -15 0 -24 46 -12 58 11 11 -17 19 -48 14z m26 -348 c0 -8 -5 -12 -10 -9 -6
4 -8 11 -5 16 9 14 15 11 15 -7z"/>
<path d="M12666 1058 c-12 -17 -13 -24 -4 -29 13 -8 48 22 48 41 0 18 -28 11
-44 -12z"/>
<path d="M12488 1023 c7 -3 16 -2 19 1 4 3 -2 6 -13 5 -11 0 -14 -3 -6 -6z"/>
<path d="M12635 1010 c3 -5 8 -10 11 -10 2 0 4 5 4 10 0 6 -5 10 -11 10 -5 0
-7 -4 -4 -10z"/>
<path d="M12588 914 c-30 -15 -38 -30 -13 -20 25 9 17 -10 -10 -22 -33 -15
-32 -32 3 -33 22 -1 23 -2 5 -6 -12 -2 -25 -13 -28 -24 -4 -10 -11 -19 -16
-19 -17 0 -9 -17 14 -28 12 -7 15 -11 7 -11 -32 3 -50 -1 -50 -11 0 -5 6 -10
14 -10 8 0 17 -6 19 -12 3 -8 6 -6 6 5 1 9 6 17 11 17 7 0 7 -6 1 -19 -6 -10
-7 -21 -3 -25 3 -4 0 -11 -8 -16 -24 -15 -36 -11 -14 4 18 14 16 15 -17 13
-31 -2 -35 -5 -28 -18 4 -9 5 -19 2 -23 -15 -15 52 -4 69 11 15 14 19 14 16 3
-4 -20 24 -15 82 13 25 12 47 23 50 25 3 2 -3 9 -13 16 -20 15 -22 33 -5 38 9
3 8 9 -5 22 -9 10 -17 27 -16 39 0 21 1 21 9 2 7 -15 9 -10 9 23 1 25 -3 41
-9 37 -5 -3 -6 -13 -3 -22 4 -11 3 -14 -5 -9 -7 4 -12 14 -12 21 0 8 -12 18
-27 21 -25 7 -25 8 -8 20 25 18 7 17 -27 -2z m31 -110 c2 -2 2 -7 -2 -10 -9
-9 -57 5 -57 16 0 9 47 4 59 -6z m-39 -24 c8 -5 11 -10 5 -10 -5 0 -17 5 -25
10 -8 5 -10 10 -5 10 6 0 17 -5 25 -10z"/>
<path d="M12501 911 c-8 -6 -9 -11 -3 -15 6 -3 14 -1 17 5 9 14 2 20 -14 10z"/>
<path d="M12537 903 c-4 -3 -7 -11 -7 -17 0 -6 5 -5 12 2 6 6 9 14 7 17 -3 3
-9 2 -12 -2z"/>
<path d="M10785 866 c0 -16 5 -22 15 -21 8 2 19 4 24 4 8 1 -28 41 -36 41 -2
0 -3 -11 -3 -24z"/>
<path d="M12470 764 c0 -8 5 -12 10 -9 6 4 8 11 5 16 -9 14 -15 11 -15 -7z"/>
<path d="M11145 730 c-3 -11 -13 -20 -21 -20 -8 0 -13 3 -11 8 3 4 -6 8 -19 8
-20 2 -22 -1 -13 -17 14 -28 45 -23 69 11 12 17 17 30 11 30 -5 0 -13 -9 -16
-20z"/>
<path d="M12460 732 c0 -5 6 -9 13 -9 6 0 21 -4 32 -8 l20 -8 -20 16 c-22 18
-45 22 -45 9z"/>
<path d="M12780 711 c0 -5 5 -13 10 -16 6 -3 10 -2 10 4 0 5 -4 13 -10 16 -5
3 -10 2 -10 -4z"/>
<path d="M10635 680 c-3 -5 -1 -10 4 -10 6 0 11 5 11 10 0 6 -2 10 -4 10 -3 0
-8 -4 -11 -10z"/>
<path d="M12690 675 c7 -9 10 -18 7 -22 -4 -3 -2 -12 5 -20 8 -10 8 -17 0 -25
-9 -9 -12 -9 -12 1 0 15 -46 7 -70 -13 -8 -6 -32 -21 -53 -31 -55 -28 -56 -37
-5 -34 24 2 49 -1 56 -5 7 -4 16 -5 21 -1 5 3 12 1 16 -5 3 -5 15 -10 26 -10
18 0 20 6 18 43 -3 37 -1 42 16 40 11 -1 15 0 9 3 -7 3 -10 13 -7 22 6 23 -13
72 -28 72 -8 0 -8 -4 1 -15z"/>
<path d="M10682 664 c-7 -8 -8 -14 -3 -14 10 0 25 19 20 25 -2 1 -10 -3 -17
-11z"/>
<path d="M10760 644 c0 -8 5 -12 10 -9 6 4 8 11 5 16 -9 14 -15 11 -15 -7z"/>
<path d="M10702 615 c0 -37 8 -44 26 -22 7 8 5 18 -8 34 l-18 23 0 -35z"/>
<path d="M10630 600 c0 -5 5 -10 11 -10 5 0 7 5 4 10 -3 6 -8 10 -11 10 -2 0
-4 -4 -4 -10z"/>
<path d="M10645 550 c3 -5 8 -10 11 -10 2 0 4 5 4 10 0 6 -5 10 -11 10 -5 0
-7 -4 -4 -10z"/>
<path d="M10704 544 c4 -9 1 -23 -5 -30 -16 -20 -1 -17 19 3 16 16 17 15 20
-1 2 -9 1 -24 -2 -33 -5 -12 -9 -13 -21 -3 -9 7 -15 8 -15 2 0 -5 8 -13 17
-16 16 -7 33 8 33 31 0 6 2 18 5 25 4 9 -4 19 -20 26 -34 16 -38 15 -31 -4z"/>
<path d="M11030 522 c0 -6 -7 -12 -17 -12 -15 0 -10 -14 5 -16 4 0 15 -4 25
-9 28 -12 33 3 9 28 -12 12 -22 16 -22 9z"/>
<path d="M12467 524 c-8 -8 3 -34 15 -34 7 0 6 5 -1 13 -6 8 -8 17 -4 20 3 4
4 7 1 7 -2 0 -7 -3 -11 -6z"/>
<path d="M12508 513 c7 -3 16 -2 19 1 4 3 -2 6 -13 5 -11 0 -14 -3 -6 -6z"/>
<path d="M11084 489 c-3 -6 0 -15 7 -20 22 -14 28 -11 22 11 -6 22 -18 26 -29
9z"/>
<path d="M10655 480 c-4 -6 3 -10 14 -10 25 0 27 6 6 13 -8 4 -17 2 -20 -3z"/>
<path d="M11165 470 c3 -5 8 -10 11 -10 2 0 4 5 4 10 0 6 -5 10 -11 10 -5 0
-7 -4 -4 -10z"/>
<path d="M11210 460 c8 -5 20 -10 25 -10 6 0 3 5 -5 10 -8 5 -19 10 -25 10 -5
0 -3 -5 5 -10z"/>
<path d="M10644 435 c1 -8 5 -18 9 -21 11 -11 8 -26 -3 -19 -5 3 -10 2 -10 -4
0 -5 8 -9 18 -8 17 1 18 5 9 34 -10 33 -27 46 -23 18z"/>
<path d="M11282 438 c2 -9 -8 -12 -37 -10 l-40 2 30 -13 c17 -8 35 -11 40 -6
6 5 16 0 23 -12 7 -10 17 -19 22 -19 6 0 2 10 -9 22 -11 11 -18 25 -15 29 2 4
0 11 -6 14 -6 4 -9 1 -8 -7z"/>
<path d="M10590 436 c0 -2 7 -7 16 -10 8 -3 12 -2 9 4 -6 10 -25 14 -25 6z"/>
<path d="M11568 373 c7 -3 16 -2 19 1 4 3 -2 6 -13 5 -11 0 -14 -3 -6 -6z"/>
<path d="M11453 363 c9 -2 25 -2 35 0 9 3 1 5 -18 5 -19 0 -27 -2 -17 -5z"/>
</g>
</svg>
